<svg aria-hidden="true" style="position: absolute; width: 0; height: 0; overflow: hidden;" version="1.1" xmlns="http://www.w3.org/2000/svg" xmlns:xlink="http://www.w3.org/1999/xlink">
    <defs>
    <symbol id="icon-toggle_off-switch-filled" viewBox="0 0 16 16">
  <path fill-rule="evenodd" clip-rule="evenodd" d="M0 8a5 5 0 015-5h6a5 5 0 010 10H5a5 5 0 01-5-5zm2 0a3 3 0 013-3h1a3 3 0 010 6H5a3 3 0 01-3-3zm3-1a1 1 0 000 2h1a1 1 0 000-2H5z"/>
</symbol>
<symbol id="icon-toggle_on-switch-filled" viewBox="0 0 16 16">
  <path fill-rule="evenodd" clip-rule="evenodd" d="M5 3a5 5 0 000 10h6a5 5 0 000-10H5zm5 2a3 3 0 000 6h1a3 3 0 100-6h-1z"/>
</symbol>
<symbol id="icon-radio_off-circle-filled" viewBox="0 0 16 16">
  <path d="M8 0a8 8 0 100 16A8 8 0 008 0z"/>
</symbol>
<symbol id="icon-radio_on-circle-tor-filled" viewBox="0 0 16 16">
  <path fill-rule="evenodd" clip-rule="evenodd" d="M3.555 1.348a8 8 0 118.89 13.304 8 8 0 01-8.89-13.304zM8 12a4 4 0 100-8 4 4 0 000 8z"/>
</symbol>
<symbol id="icon-checkbox_off-rectangle-filled" viewBox="0 0 16 16">
  <path d="M0 2a2 2 0 012-2h12a2 2 0 012 2v12a2 2 0 01-2 2H2a2 2 0 01-2-2V2z"/>
</symbol>
<symbol id="icon-checkbox_on-rectangle-filled" viewBox="0 0 16 16">
  <path fill-rule="evenodd" clip-rule="evenodd" d="M2 0a2 2 0 00-2 2v12a2 2 0 002 2h12a2 2 0 002-2V2a2 2 0 00-2-2H2zm5 8.586l3.291-3.292a1 1 0 111.415 1.415l-3.997 3.997-.002.001a1 1 0 01-1.414 0L4.297 8.711A1 1 0 115.71 7.297L7 8.586z"/>
</symbol>
<symbol id="icon-checkbox_off-rectangle-outline" viewBox="0 0 16 16">
  <path fill-rule="evenodd" clip-rule="evenodd" d="M0 3a3 3 0 013-3h10a3 3 0 013 3v10a3 3 0 01-3 3H3a3 3 0 01-3-3V3zm3-1a1 1 0 00-1 1v10a1 1 0 001 1h10a1 1 0 001-1V3a1 1 0 00-1-1H3z"/>
</symbol>
<symbol id="icon-checkbox_on-rectangle-outline" viewBox="0 0 16 16">
  <path fill-rule="evenodd" clip-rule="evenodd" d="M3 0a3 3 0 00-3 3v10a3 3 0 003 3h10a3 3 0 003-3V3a3 3 0 00-3-3H3zM2 3a1 1 0 011-1h10a1 1 0 011 1v10a1 1 0 01-1 1H3a1 1 0 01-1-1V3zm5 5.586l3.291-3.292a1 1 0 111.415 1.415l-3.997 3.997-.002.001a1 1 0 01-1.414 0L4.297 8.711A1 1 0 115.71 7.297L7 8.586z"/>
</symbol>
<symbol id="icon-checkbox_marker-check-outline" viewBox="0 0 16 16">
  <path fill-rule="evenodd" clip-rule="evenodd" d="M10.292 5.293L6.998 8.585l-1.29-1.289a1.001 1.001 0 00-1.415 1.415l1.997 1.996a1 1 0 001.416 0l.001-.001 4-3.998a1 1 0 10-1.415-1.415z"/>
</symbol>
<symbol id="icon-radio_off-circle-outline" viewBox="0 0 16 16">
  <path d="M8 2a6 6 0 11-6 6 6.007 6.007 0 016-6zm0-2a8 8 0 100 16A8 8 0 008 0z"/>
</symbol>
<symbol id="icon-radio_on-circle-outline" viewBox="0 0 16 16">
  <path d="M8 0a8 8 0 100 16A8 8 0 008 0zm0 14a6 6 0 116-6 6.007 6.007 0 01-6 6zM8 4a4 4 0 100 8 4 4 0 000-8z"/>
</symbol>
<symbol id="icon-radio_marker-circle-filled" viewBox="0 0 16 16">
  <path d="M8 12a4 4 0 100-8 4 4 0 000 8z"/>
</symbol>
<symbol id="icon-x-close-outline" viewBox="0 0 16 16">
  <path fill-rule="evenodd" clip-rule="evenodd" d="M4.297 4.297a1 1 0 000 1.414l2.29 2.29-2.29 2.292a1 1 0 101.414 1.414l2.291-2.29 2.29 2.29a1 1 0 101.415-1.414l-2.29-2.291 2.29-2.291a1 1 0 00-1.414-1.414l-2.291 2.29-2.29-2.29a1 1 0 00-1.415 0z"/>
</symbol>
<symbol id="icon-x-close-clear-rectangle-filled" viewBox="0 0 16 16">
  <path fill-rule="evenodd" clip-rule="evenodd" d="M2 0a2 2 0 00-2 2v12a2 2 0 002 2h12a2 2 0 002-2V2a2 2 0 00-2-2H2zm2.297 5.711A1 1 0 115.71 4.297l2.291 2.29 2.29-2.29a1 1 0 111.415 1.414l-2.29 2.291 2.29 2.29a1 1 0 01-1.414 1.415l-2.291-2.29-2.29 2.29a1 1 0 01-1.415-1.414l2.29-2.291-2.29-2.29z"/>
</symbol>
<symbol id="icon-x-erase-clear-circle-filled" viewBox="0 0 16 16">
  <path fill-rule="evenodd" clip-rule="evenodd" d="M3.555 1.348a8 8 0 118.89 13.304 8 8 0 01-8.89-13.304zm.742 4.363A1 1 0 115.71 4.297l2.291 2.29 2.29-2.29a1 1 0 111.415 1.414l-2.29 2.291 2.29 2.29a1 1 0 01-1.414 1.415l-2.291-2.29-2.29 2.29a1 1 0 01-1.415-1.414l2.29-2.291-2.29-2.29z"/>
</symbol>
<symbol id="icon-x-erase-undo-clear-filled" viewBox="0 0 16 16">
  <path fill-rule="evenodd" clip-rule="evenodd" d="M4.961 2a2 2 0 00-1.561.75L.438 6.453A2 2 0 000 7.702v.596a2 2 0 00.438 1.25L3.4 13.249A2 2 0 004.96 14H14a2 2 0 002-2V4a2 2 0 00-2-2H4.961zm1.332 3.711a1 1 0 011.414-1.414l2.291 2.29 2.29-2.29a1 1 0 111.415 1.414l-2.29 2.291 2.29 2.29a1 1 0 11-1.414 1.415l-2.291-2.29-2.29 2.29a1 1 0 01-1.415-1.414l2.29-2.291-2.29-2.29z"/>
</symbol>
<symbol id="icon-denied-banned-circle-slash-outline" viewBox="0 0 16 16">
  <path d="M8 0a8 8 0 100 16A8 8 0 008 0zm6 8c0 1.245-.39 2.46-1.113 3.473l-8.36-8.36A5.994 5.994 0 0114 8zM2 8c0-1.245.39-2.46 1.113-3.473l8.36 8.36A5.993 5.993 0 012 8z"/>
</symbol>
<symbol id="icon-clock_round_ccw-time-history-circle-outline" viewBox="0 0 16 16">
  <path fill-rule="evenodd" clip-rule="evenodd" d="M4.406.853a8 8 0 114.745 15.064 1 1 0 11-.287-1.98A6 6 0 104 12.473V11a1 1 0 112 0v4a1 1 0 01-1 1H1a1 1 0 110-2h1.708A8 8 0 014.406.853zM8 4a1 1 0 011 1v2.586l1.707 1.707a1 1 0 01-1.414 1.414l-2-2A1 1 0 017 8V5a1 1 0 011-1z"/>
</symbol>
<symbol id="icon-clock_round-time-circle-outline" viewBox="0 0 16 16">
  <path fill-rule="evenodd" clip-rule="evenodd" d="M8 0a8 8 0 100 16A8 8 0 008 0zm0 2a6 6 0 11-6 6 6.007 6.007 0 016-6zm1 3a1 1 0 10-2 0v3a1 1 0 00.293.707l2 2a1 1 0 001.414-1.414L9 7.586V5z"/>
</symbol>
<symbol id="icon-stop-round-rectangle-filled" viewBox="0 0 16 16">
  <path fill-rule="evenodd" clip-rule="evenodd" d="M3.555 1.348a8 8 0 118.89 13.304 8 8 0 01-8.89-13.304zM6 4a2 2 0 00-2 2v4a2 2 0 002 2h4a2 2 0 002-2V6a2 2 0 00-2-2H6z"/>
</symbol>
<symbol id="icon-pause_round-parallel-line-filled" viewBox="0 0 16 16">
  <path fill-rule="evenodd" clip-rule="evenodd" d="M8 0a8 8 0 100 16A8 8 0 008 0zM4 5.5a1.5 1.5 0 113 0v5a1.5 1.5 0 01-3 0v-5zM10.5 4A1.5 1.5 0 009 5.5v5a1.5 1.5 0 003 0v-5A1.5 1.5 0 0010.5 4z"/>
</symbol>
<symbol id="icon-play_round-triangle-right-filled" viewBox="0 0 16 16">
  <path fill-rule="evenodd" clip-rule="evenodd" d="M3.555 1.348a8 8 0 118.89 13.304 8 8 0 01-8.89-13.304zm3.817 10.429l3.77-2.262a1.766 1.766 0 000-3.03l-3.77-2.262A1.566 1.566 0 005 5.566v4.868a1.566 1.566 0 002.372 1.343z"/>
</symbol>
<symbol id="icon-stop-rectangle-square-filled" viewBox="0 0 16 16">
  <path d="M4 6a2 2 0 012-2h4a2 2 0 012 2v4a2 2 0 01-2 2H6a2 2 0 01-2-2V6z"/>
</symbol>
<symbol id="icon-pause-parallel-line-filled" viewBox="0 0 16 16">
  <path d="M5.5 4A1.5 1.5 0 004 5.5v5a1.5 1.5 0 003 0v-5A1.5 1.5 0 005.5 4zM10.5 4A1.5 1.5 0 009 5.5v5a1.5 1.5 0 003 0v-5A1.5 1.5 0 0010.5 4z"/>
</symbol>
<symbol id="icon-play-triangle-right-filled" viewBox="0 0 16 16">
  <path d="M4 5.566v4.868a1.566 1.566 0 002.372 1.343l3.77-2.262a1.766 1.766 0 000-3.03l-3.77-2.262A1.566 1.566 0 004 5.566z"/>
</symbol>
<symbol id="icon-scroll-updown-arrow-filled" viewBox="0 0 16 16">
  <path fill-rule="evenodd" clip-rule="evenodd" d="M5.253 5.797L7.226 4.22A1 1 0 017.851 4h.298a1 1 0 01.625.22l1.973 1.577A.675.675 0 0110.324 7h-4.65a.675.675 0 01-.422-1.203zM7.851 12h.298a1 1 0 00.625-.22l1.973-1.577A.676.676 0 0010.324 9h-4.65a.675.675 0 00-.422 1.203l1.973 1.578a1 1 0 00.625.219z"/>
</symbol>
<symbol id="icon-triangle-down-arrow-filled" viewBox="0 0 16 16">
  <path d="M11.662 7.604l-2.475 1.98a1.9 1.9 0 01-2.374 0l-2.475-1.98A.9.9 0 014.901 6H11.1a.9.9 0 01.562 1.604z"/>
</symbol>
<symbol id="icon-triangle-up-arrow-filled" viewBox="0 0 16 16">
  <path d="M6.813 6.416l-2.475 1.98A.9.9 0 004.901 10H11.1a.9.9 0 00.562-1.604l-2.475-1.98a1.9 1.9 0 00-2.374 0z"/>
</symbol>
<symbol id="icon-group_min-minus-outline" viewBox="0 0 16 16">
  <path d="M4 8a1 1 0 011-1h6a1 1 0 110 2H5a1 1 0 01-1-1z"/>
</symbol>
<symbol id="icon-group_max-plus-outline" viewBox="0 0 16 16">
  <path fill-rule="evenodd" clip-rule="evenodd" d="M8 4a1 1 0 00-1 1v2H5a1 1 0 000 2h2v2a1 1 0 102 0V9h2a1 1 0 100-2H9V5a1 1 0 00-1-1z"/>
</symbol>
<symbol id="icon-group_round_min-minus-circle-filled" viewBox="0 0 16 16">
  <path fill-rule="evenodd" clip-rule="evenodd" d="M3.555 1.348a8 8 0 118.89 13.304 8 8 0 01-8.89-13.304zM5 7a1 1 0 000 2h6a1 1 0 100-2H5z"/>
</symbol>
<symbol id="icon-group_round_max-plus-circle-filled" viewBox="0 0 16 16">
  <path fill-rule="evenodd" clip-rule="evenodd" d="M3.555 1.348a8 8 0 118.89 13.304 8 8 0 01-8.89-13.304zM7 5a1 1 0 012 0v2h2a1 1 0 110 2H9v2a1 1 0 11-2 0V9H5a1 1 0 010-2h2V5z"/>
</symbol>
<symbol id="icon-group_square_min-minus-rectangle-filled" viewBox="0 0 16 16">
  <path fill-rule="evenodd" clip-rule="evenodd" d="M2 0a2 2 0 00-2 2v12a2 2 0 002 2h12a2 2 0 002-2V2a2 2 0 00-2-2H2zm3 7a1 1 0 000 2h6a1 1 0 100-2H5z"/>
</symbol>
<symbol id="icon-group_square_max-plus-rectangle-filled" viewBox="0 0 16 16">
  <path fill-rule="evenodd" clip-rule="evenodd" d="M2 0a2 2 0 00-2 2v12a2 2 0 002 2h12a2 2 0 002-2V2a2 2 0 00-2-2H2zm5 5a1 1 0 012 0v2h2a1 1 0 110 2H9v2a1 1 0 11-2 0V9H5a1 1 0 010-2h2V5z"/>
</symbol>
<symbol id="icon-question-help-outline" viewBox="0 0 16 16">
  <path fill-rule="evenodd" clip-rule="evenodd" d="M7.472 2a3 3 0 00-1.342.317l-.102.051a3 3 0 00-1.155 1.02l-.705 1.057a1 1 0 001.664 1.11l.705-1.058a1 1 0 01.385-.34l.103-.051A1 1 0 017.472 4H8.93a1 1 0 01.832.445l.07.106a1 1 0 01.168.555v.066a1 1 0 01-.293.707L7.293 8.293a1 1 0 101.414 1.414l2.414-2.414A3 3 0 0012 5.172v-.066a3 3 0 00-.504-1.665l-.07-.105A3 3 0 008.93 2H7.472zM7 13a1 1 0 112 0 1 1 0 01-2 0z"/>
</symbol>
<symbol id="icon-question_square-rectangle-help-outline" viewBox="0 0 16 16">
  <path fill-rule="evenodd" clip-rule="evenodd" d="M0 3a3 3 0 013-3h10a3 3 0 013 3v10a3 3 0 01-3 3H3a3 3 0 01-3-3V3zm3-1a1 1 0 00-1 1v10a1 1 0 001 1h10a1 1 0 001-1V3a1 1 0 00-1-1H3zm2.707 2.879A3 3 0 017.828 4h.936a2.236 2.236 0 011 4.236l-1.317.658a1 1 0 01-.894-1.788l1.317-.659A.236.236 0 008.764 6h-.936a1 1 0 00-.707.293l-.414.414a1 1 0 01-1.414-1.414l.414-.414zM9 11a1 1 0 11-2 0 1 1 0 012 0z"/>
</symbol>
<symbol id="icon-question_round-circle-help-filled" viewBox="0 0 16 16">
  <path fill-rule="evenodd" clip-rule="evenodd" d="M3.555 1.348a8 8 0 118.89 13.304 8 8 0 01-8.89-13.304zm2.152 3.53A3 3 0 017.828 4h.936a2.236 2.236 0 011 4.236l-1.317.658a1 1 0 01-.894-1.788l1.317-.659A.236.236 0 008.764 6h-.936a1 1 0 00-.707.293l-.414.414a1 1 0 01-1.414-1.414l.414-.414zM9 11a1 1 0 11-2 0 1 1 0 012 0z"/>
</symbol>
<symbol id="icon-info_octahedron-filled" viewBox="0 0 16 16">
  <path fill-rule="evenodd" clip-rule="evenodd" d="M0 10.172V5.828a2 2 0 01.586-1.414L4.414.586A2 2 0 015.828 0h4.344a2 2 0 011.414.586l3.828 3.828A2 2 0 0116 5.828v4.344a2 2 0 01-.586 1.414l-3.828 3.828a2 2 0 01-1.414.586H5.828a2 2 0 01-1.414-.586L.586 11.586A2 2 0 010 10.172zM9 11a1 1 0 11-2 0V8a1 1 0 012 0v3zm0-6a1 1 0 11-2 0 1 1 0 012 0z"/>
</symbol>
<symbol id="icon-info-circle-outline" viewBox="0 0 16 16">
  <path fill-rule="evenodd" clip-rule="evenodd" d="M11.333 3.011A6 6 0 008 2a6.007 6.007 0 00-6 6 6 6 0 109.333-4.989zM3.555 1.348a8 8 0 118.89 13.304 8 8 0 01-8.89-13.304zM7 5a1 1 0 112 0 1 1 0 01-2 0zM6 8a1 1 0 011-1h1a1 1 0 011 1v2a1 1 0 110 2H8a1 1 0 01-1-1V9a1 1 0 01-1-1z"/>
</symbol>
<symbol id="icon-attention_triangle-filled" viewBox="0 0 16 16">
  <path fill-rule="evenodd" clip-rule="evenodd" d="M9.504 1.864l6.282 10.768A1.574 1.574 0 0114.426 15H1.574a1.574 1.574 0 01-1.36-2.368L6.496 1.864a1.741 1.741 0 013.008 0zM7 6a1 1 0 012 0v3a1 1 0 01-2 0V6zm0 6a1 1 0 112 0 1 1 0 01-2 0z"/>
</symbol>
<symbol id="icon-attention_round-circle-filled" viewBox="0 0 16 16">
  <path fill-rule="evenodd" clip-rule="evenodd" d="M3.555 1.348a8 8 0 118.89 13.304 8 8 0 01-8.89-13.304zM7 5a1 1 0 012 0v3a1 1 0 01-2 0V5zm0 6a1 1 0 112 0 1 1 0 01-2 0z"/>
</symbol>
<symbol id="icon-attention_square-rectangle-outline" viewBox="0 0 16 16">
  <path fill-rule="evenodd" clip-rule="evenodd" d="M0 3a3 3 0 013-3h10a3 3 0 013 3v10a3 3 0 01-3 3H3a3 3 0 01-3-3V3zm3-1a1 1 0 00-1 1v10a1 1 0 001 1h10a1 1 0 001-1V3a1 1 0 00-1-1H3zm4 3a1 1 0 012 0v3a1 1 0 11-2 0V5zm1 5a1 1 0 100 2 1 1 0 000-2z"/>
</symbol>
<symbol id="icon-move-arrow-outline" viewBox="0 0 16 16">
  <path fill-rule="evenodd" clip-rule="evenodd" d="M7.293.293a1 1 0 011.414 0l2 2a1 1 0 01-1.414 1.414L9 3.414V5a1 1 0 01-2 0V3.414l-.293.293a1 1 0 01-1.414-1.414l2-2zm-3.586 5a1 1 0 010 1.414L3.414 7H5a1 1 0 010 2H3.414l.293.293a1 1 0 01-1.414 1.414l-2-2a1 1 0 010-1.414l2-2a1 1 0 011.414 0zm8.586 0a1 1 0 011.414 0l2 2a1 1 0 010 1.414l-2 2a1 1 0 01-1.414-1.414L12.586 9H11a1 1 0 110-2h1.586l-.293-.293a1 1 0 010-1.414zM7 12.586V11a1 1 0 112 0v1.586l.293-.293a1 1 0 011.414 1.414l-2 2a1 1 0 01-1.414 0l-2-2a1 1 0 111.414-1.414l.293.293z"/>
</symbol>
<symbol id="icon-resize_drag_hor-reqtangle-outline" viewBox="0 0 16 16">
  <path fill-rule="evenodd" clip-rule="evenodd" d="M6 4a1 1 0 00-1 1v6a1 1 0 102 0V5a1 1 0 00-1-1zm4 0a1 1 0 00-1 1v6a1 1 0 102 0V5a1 1 0 00-1-1z"/>
</symbol>
<symbol id="icon-resize_drag_vert-reqtangle-outline" viewBox="0 0 16 16">
  <path fill-rule="evenodd" clip-rule="evenodd" d="M5 5a1 1 0 000 2h6a1 1 0 100-2H5zm0 4a1 1 0 000 2h6a1 1 0 100-2H5z"/>
</symbol>
<symbol id="icon-zoom_out-minus-outline" viewBox="0 0 16 16">
  <path fill-rule="evenodd" clip-rule="evenodd" d="M7 2a5 5 0 100 10A5 5 0 007 2zM0 7a7 7 0 1112.606 4.192l3.101 3.1a1 1 0 01-1.414 1.415l-3.1-3.1A7 7 0 010 7zm5-1a1 1 0 000 2h4a1 1 0 000-2H5z"/>
</symbol>
<symbol id="icon-zoom_in-plus-outline" viewBox="0 0 16 16">
  <path fill-rule="evenodd" clip-rule="evenodd" d="M7 2a5 5 0 100 10A5 5 0 007 2zM0 7a7 7 0 1112.606 4.192l3.101 3.1a1 1 0 01-1.414 1.415l-3.1-3.1A7 7 0 010 7zm8-2a1 1 0 00-2 0v1H5a1 1 0 000 2h1v1a1 1 0 002 0V8h1a1 1 0 000-2H8V5z"/>
</symbol>
<symbol id="icon-magnifier-search-outline" viewBox="0 0 16 16">
  <path fill-rule="evenodd" clip-rule="evenodd" d="M2 7a5 5 0 1110 0A5 5 0 012 7zm5-7a7 7 0 104.192 12.606l3.1 3.101a1 1 0 001.415-1.414l-3.1-3.1A7 7 0 007 0z"/>
</symbol>
<symbol id="icon-minimize-arrow-outline" viewBox="0 0 16 16">
  <path fill-rule="evenodd" clip-rule="evenodd" d="M9 2a1 1 0 012 0v1.586l2.293-2.293a1 1 0 111.414 1.414L12.414 5H14a1 1 0 110 2h-4a1 1 0 01-1-1V2zm-7 9a1 1 0 110-2h4a1 1 0 011 1v4a1 1 0 11-2 0v-1.586l-2.293 2.293a1 1 0 01-1.414-1.414L3.586 11H2z"/>
</symbol>
<symbol id="icon-maximize-arrow-outline" viewBox="0 0 16 16">
  <path fill-rule="evenodd" clip-rule="evenodd" d="M9 2a1 1 0 001 1h1.586L9.293 5.293a1 1 0 001.414 1.414L13 4.414V6a1 1 0 102 0V2a1 1 0 00-1-1h-4a1 1 0 00-1 1zm-6 8a1 1 0 10-2 0v4a1 1 0 001 1h4a1 1 0 100-2H4.414l2.293-2.293a1 1 0 00-1.414-1.414L3 11.586V10z"/>
</symbol>
<symbol id="icon-maximize-fullscreen-outline" viewBox="0 0 16 16">
  <path fill-rule="evenodd" clip-rule="evenodd" d="M0 3a3 3 0 013-3h1a1 1 0 010 2H3a1 1 0 00-1 1v1a1 1 0 01-2 0V3zm11-2a1 1 0 011-1h1a3 3 0 013 3v1a1 1 0 11-2 0V3a1 1 0 00-1-1h-1a1 1 0 01-1-1zM1 11a1 1 0 011 1v1a1 1 0 001 1h1a1 1 0 110 2H3a3 3 0 01-3-3v-1a1 1 0 011-1zm14 0a1 1 0 011 1v1a3 3 0 01-3 3h-1a1 1 0 110-2h1a1 1 0 001-1v-1a1 1 0 011-1z"/>
</symbol>
<symbol id="icon-send-airplane-message-filled" viewBox="0 0 16 16">
  <path fill-rule="evenodd" clip-rule="evenodd" d="M14 9.504L3.78 13.839c-1.314.557-2.768-.403-2.78-1.829l1-3.007h5A1.001 1.001 0 008 7.99a1.001 1.001 0 00-1-.994H2L1 3.99c.012-1.426 1.466-2.386 2.78-1.83L14 6.497l.106.053a1.623 1.623 0 010 2.902L14 9.504z"/>
</symbol>
<symbol id="icon-rotate_cw-redo-repeat-arrow-outline" viewBox="0 0 16 16">
  <path d="M1.769 2.983a8 8 0 005.098 12.936 1 1 0 00.283-1.98A6 6 0 1112 12.473V11a1 1 0 10-2 0v4a1 1 0 001 1h4a1 1 0 100-2h-1.709A8 8 0 101.77 2.983z"/>
</symbol>
<symbol id="icon-rotate_ccw-undo-return-arrow-outline" viewBox="0 0 16 16">
  <path d="M.5 5.216A8 8 0 002.708 14H1a1 1 0 100 2h4a1 1 0 001-1v-4a1 1 0 10-2 0v1.472a6 6 0 114.86 1.466 1 1 0 10.286 1.98A8 8 0 10.5 5.216z"/>
</symbol>
<symbol id="icon-refresh_cw-update-arrow-outline" viewBox="0 0 16 16">
  <path fill-rule="evenodd" clip-rule="evenodd" d="M1 0a1 1 0 100 2h1.708a8 8 0 004.153 13.918 1 1 0 00.285-1.98A6 6 0 014 3.529V5a1 1 0 102 0V1a1 1 0 00-1-1H1zm11 11a1 1 0 10-2 0v4a1 1 0 001 1h4a1 1 0 100-2h-1.709a8.002 8.002 0 00.235-11.785A8 8 0 009.148.083a1 1 0 00-.287 1.98A6 6 0 0112 12.472V11z"/>
</symbol>
<symbol id="icon-refresh_ccw-update-arrow-outline" viewBox="0 0 16 16">
  <path d="M10 5a1 1 0 102 0V3.528a6 6 0 01-3.145 10.41 1 1 0 10.285 1.98A8 8 0 0013.291 2H15a1 1 0 100-2h-4a1 1 0 00-1 1v4zM7.143 2.061A1 1 0 106.858.082 8 8 0 002.708 14H1a1 1 0 100 2h4a1 1 0 001-1v-4a1 1 0 10-2 0v1.472a6 6 0 013.143-10.41z"/>
</symbol>
<symbol id="icon-trash-bin-basket-filled" viewBox="0 0 16 16">
  <path fill-rule="evenodd" clip-rule="evenodd" d="M7 1a1 1 0 012 0v1h4a1 1 0 110 2H3a1 1 0 010-2h4V1zM5 6a2 2 0 00-2 2v6a2 2 0 002 2h6a2 2 0 002-2V8a2 2 0 00-2-2H5zm1 2a1 1 0 00-1 1v4a1 1 0 102 0V9a1 1 0 00-1-1zm3 1a1 1 0 112 0v4a1 1 0 11-2 0V9z"/>
</symbol>
<symbol id="icon-unlock-unblock-off-filled" viewBox="0 0 16 16">
  <path fill-rule="evenodd" clip-rule="evenodd" d="M8.783.051A6 6 0 002 6a2 2 0 00-2 2v6a2 2 0 002 2h12a2 2 0 002-2V8a2 2 0 00-2-2H4a4 4 0 016-3.464 1 1 0 101-1.732A6 6 0 008.783.05zM7 10a1 1 0 012 0v2a1 1 0 11-2 0v-2z"/>
</symbol>
<symbol id="icon-lock-block-on-filled" viewBox="0 0 16 16">
  <path fill-rule="evenodd" clip-rule="evenodd" d="M8 0a6 6 0 00-6 6 2 2 0 00-2 2v6a2 2 0 002 2h12a2 2 0 002-2V8a2 2 0 00-2-2 6 6 0 00-6-6zm4 6a4 4 0 10-8 0h8zm-6 5a1 1 0 011-1h2a1 1 0 110 2H7a1 1 0 01-1-1z"/>
</symbol>
<symbol id="icon-print-printer-send-image-filled" viewBox="0 0 16 16">
  <path fill-rule="evenodd" clip-rule="evenodd" d="M3 2a1 1 0 011-1h8a1 1 0 110 2H4a1 1 0 01-1-1zM2 5a2 2 0 00-2 2v4a2 2 0 002 2h1v1a2 2 0 002 2h6a2 2 0 002-2v-1h1a2 2 0 002-2V7a2 2 0 00-2-2H2zm12 3a1 1 0 00-1-1h-2a1 1 0 100 2h2a1 1 0 001-1zm-8 4a1 1 0 100 2h4a1 1 0 100-2H6z"/>
</symbol>
<symbol id="icon-exchange-bucket-update-updown-filled" viewBox="0 0 16 16">
  <path d="M4.293 1.293a1 1 0 011.414 0l2 2a1 1 0 01-1.414 1.414L6 4.414V9a1 1 0 11-2 0V4.414l-.293.293a1 1 0 01-1.414-1.414l2-2zM1 11a1 1 0 011 1v1a1 1 0 001 1h10a1 1 0 001-1v-1a1 1 0 112 0v1a3 3 0 01-3 3H3a3 3 0 01-3-3v-1a1 1 0 011-1z"/>
  <path d="M12 3a1 1 0 10-2 0v4.586l-.293-.293a1 1 0 00-1.414 1.414l2 2a1 1 0 001.414 0l2-2a1 1 0 00-1.414-1.414L12 7.586V3z"/>
</symbol>
<symbol id="icon-upload-arrow-line-up-file-filled" viewBox="0 0 16 16">
  <path fill-rule="evenodd" clip-rule="evenodd" d="M8.707.293a1 1 0 00-1.414 0l-3 3a1 1 0 001.414 1.414L7 3.414V11a1 1 0 102 0V3.414l1.293 1.293a1 1 0 101.414-1.414l-3-3zM0 15a1 1 0 011-1h14a1 1 0 110 2H1a1 1 0 01-1-1z"/>
</symbol>
<symbol id="icon-download-arrow-line-down-file-filled" viewBox="0 0 16 16">
  <path fill-rule="evenodd" clip-rule="evenodd" d="M9 1a1 1 0 00-2 0v7.586L5.707 7.293a1 1 0 00-1.414 1.414l3 3a1 1 0 001.414 0l3-3a1 1 0 00-1.414-1.414L9 8.586V1zM0 15a1 1 0 011-1h14a1 1 0 110 2H1a1 1 0 01-1-1z"/>
</symbol>
<symbol id="icon-link-attach-file-outline" viewBox="0 0 16 16">
  <path fill-rule="evenodd" clip-rule="evenodd" d="M6.283 4.73a.997.997 0 010-1.41l.995-.995a4.524 4.524 0 016.397 6.397l-.995.995a.997.997 0 11-1.41-1.41l.995-.995a2.529 2.529 0 10-3.577-3.577l-.995.996a.997.997 0 01-1.41 0zm-3.958 8.945a4.524 4.524 0 010-6.397l.963-.964a.997.997 0 111.41 1.41l-.963.964a2.529 2.529 0 103.577 3.577l.963-.964a.998.998 0 011.41 1.41l-.963.964a4.524 4.524 0 01-6.397 0zm2.672-4.082a.997.997 0 101.41 1.41l4.566-4.566a.997.997 0 10-1.41-1.41L4.997 9.593z"/>
</symbol>
<symbol id="icon-attach-paperclip-document-outline" viewBox="0 0 16 16">
  <path d="M6 2a3 3 0 00-3 3v4a5 5 0 1010 0V5a1 1 0 112 0v4A7 7 0 111 9V5a5 5 0 1110 0v4a3 3 0 01-6 0V5a1 1 0 012 0v4a1 1 0 002 0V5a3 3 0 00-3-3z"/>
</symbol>
<symbol id="icon-cut-scissors-cross-outline" viewBox="0 0 16 16">
  <path fill-rule="evenodd" clip-rule="evenodd" d="M5 3.5a1.5 1.5 0 11-3 0 1.5 1.5 0 013 0zm2 0c0 .603-.152 1.17-.42 1.665l8.127 8.128a1 1 0 01-1.414 1.414L8 9.414l-1.42 1.42A3.5 3.5 0 115.165 9.42L6.585 8l-1.42-1.42A3.5 3.5 0 117 3.5zm-2 9a1.5 1.5 0 11-3 0 1.5 1.5 0 013 0zm6.207-6.293l3.5-3.5a1 1 0 00-1.414-1.414l-3.5 3.5 1.414 1.414z"/>
</symbol>
<symbol id="icon-copy_text-sheet-square-filled" viewBox="0 0 16 16">
  <path fill-rule="evenodd" clip-rule="evenodd" d="M2 3a1 1 0 011-1h8a1 1 0 100-2H3a3 3 0 00-3 3v8a1 1 0 102 0V3zm3 1a1 1 0 00-1 1v9a2 2 0 002 2h8a2 2 0 002-2V6a2 2 0 00-2-2H5zm2 2a1 1 0 000 2h6a1 1 0 100-2H7zm-1 5a1 1 0 011-1h4a1 1 0 110 2H7a1 1 0 01-1-1z"/>
</symbol>
<symbol id="icon-copy_blank-sheet-square-filled" viewBox="0 0 16 16">
  <path fill-rule="evenodd" clip-rule="evenodd" d="M3 2a1 1 0 00-1 1v8a1 1 0 11-2 0V3a3 3 0 013-3h8a1 1 0 110 2H3zm2 2a1 1 0 00-1 1v9a2 2 0 002 2h8a2 2 0 002-2V6a2 2 0 00-2-2H5z"/>
</symbol>
<symbol id="icon-new-document-sheet-filled" viewBox="0 0 16 16">
  <path fill-rule="evenodd" clip-rule="evenodd" d="M3 0h4v3a3 3 0 003 3h3v2.1A5 5 0 008 16H3a2 2 0 01-2-2V2a2 2 0 012-2zm6 0v3a1 1 0 001 1h2L9 0zm3 10a1 1 0 011 1v1h1a1 1 0 110 2h-1v1a1 1 0 11-2 0v-1h-1a1 1 0 110-2h1v-1a1 1 0 011-1z"/>
</symbol>
<symbol id="icon-save-memory-disk-filled" viewBox="0 0 16 16">
  <path fill-rule="evenodd" clip-rule="evenodd" d="M0 2a2 2 0 012-2h9.172a2 2 0 011.414.586l2.828 2.828A2 2 0 0116 4.828V14a2 2 0 01-2 2H2a2 2 0 01-2-2V2zm2 1a1 1 0 011-1h7a1 1 0 011 1v2a1 1 0 01-1 1H3a1 1 0 01-1-1V3zm6 11a3 3 0 100-6 3 3 0 000 6z"/>
</symbol>
<symbol id="icon-edit_box-pencil-filled" viewBox="0 0 16 16">
  <path fill-rule="evenodd" clip-rule="evenodd" d="M4.586 8.584l5.796-5.795 2.83 2.83-5.796 5.795a2.001 2.001 0 01-2.83-2.83zm10.828-5.168l-.788.788-2.83-2.83.788-.788a2 2 0 012.83 2.83zM2 3a1 1 0 011-1h4a1 1 0 000-2H3a3 3 0 00-3 3v10a3 3 0 003 3h10a3 3 0 003-3V9a1 1 0 10-2 0v4a1 1 0 01-1 1H3a1 1 0 01-1-1V3z"/>
</symbol>
<symbol id="icon-edit_line-pencil-filled" viewBox="0 0 16 16">
  <path fill-rule="evenodd" clip-rule="evenodd" d="M4.586 8.584l5.796-5.795 2.83 2.83-5.796 5.795a2.001 2.001 0 01-2.83-2.83zm10.828-5.168l-.788.788-2.83-2.83.788-.788a2 2 0 012.83 2.83zM1 14a1 1 0 100 2h14a1 1 0 100-2H1z"/>
</symbol>
<symbol id="icon-edit-pencil-filled" viewBox="0 0 16 16">
  <path fill-rule="evenodd" clip-rule="evenodd" d="M8.381 4.789l-5.795 5.795a2 2 0 002.83 2.83l5.795-5.795-2.83-2.83zm4.245 1.415l.788-.788a2.001 2.001 0 00-2.83-2.83l-.788.788 2.83 2.83z"/>
</symbol>
<symbol id="icon-equal-line-parallel-outline" viewBox="0 0 16 16">
  <path fill-rule="evenodd" clip-rule="evenodd" d="M3 5a1 1 0 100 2h10a1 1 0 100-2H3zm0 4a1 1 0 100 2h10a1 1 0 100-2H3z"/>
</symbol>
<symbol id="icon-less-left-chevron-arrow-outline" viewBox="0 0 16 16">
  <path fill-rule="evenodd" clip-rule="evenodd" d="M13.989 4.852a1 1 0 01-.84 1.137L4.631 7.266a.742.742 0 000 1.467l8.516 1.278a1 1 0 11-.296 1.978L4.335 10.71a2.742 2.742 0 010-5.423l8.517-1.277a1 1 0 011.137.84z"/>
</symbol>
<symbol id="icon-more-right-chevron-arrow-outline" viewBox="0 0 16 16">
  <path fill-rule="evenodd" clip-rule="evenodd" d="M2.011 4.852a1 1 0 011.137-.841l8.517 1.277a2.742 2.742 0 010 5.423L3.148 11.99a1 1 0 11-.296-1.978l8.516-1.278a.742.742 0 000-1.467L2.852 5.99a1 1 0 01-.84-1.137z"/>
</symbol>
<symbol id="icon-more_equal-line-right-arrow-outline" viewBox="0 0 16 16">
  <path fill-rule="evenodd" clip-rule="evenodd" d="M2.852 3.989a1 1 0 01.296-1.978l8.517 1.277a2.742 2.742 0 010 5.423L3.148 9.99a1 1 0 11-.296-1.978l8.516-1.278a.742.742 0 000-1.467L2.852 3.99zm10 6.522a1 1 0 01.296 1.978l-10 1.5a1 1 0 11-.296-1.978l10-1.5z"/>
</symbol>
<symbol id="icon-less_equal-line-left-arrow-outline" viewBox="0 0 16 16">
  <path d="M13.148 3.989a1 1 0 00-.296-1.978L4.335 3.288a2.742 2.742 0 000 5.423l8.517 1.278a1 1 0 00.296-1.978L4.632 6.733a.742.742 0 010-1.467l8.516-1.277zM3.148 10.511a1 1 0 10-.296 1.978l10 1.5a1 1 0 00.296-1.978l-10-1.5z"/>
</symbol>
<symbol id="icon-not_equal-line-cross-outline" viewBox="0 0 16 16">
  <path fill-rule="evenodd" clip-rule="evenodd" d="M3.707 2.293a1 1 0 00-1.414 1.414L3.586 5H3a1 1 0 000 2h2.586l2 2H3a1 1 0 000 2h6.586l2.703 2.703a1 1 0 001.414-1.414L3.707 2.293zM11.414 7l-2-2H13a1 1 0 110 2h-1.586z"/>
</symbol>
<symbol id="icon-chevrons_up-arrow-outline" viewBox="0 0 16 16">
  <path d="M8.707 2.293a1 1 0 00-1.414 0l-5 5a1 1 0 001.414 1.414L8 4.414l4.293 4.293a1 1 0 101.414-1.414l-5-5z"/>
  <path d="M13.707 12.293l-5-5a1 1 0 00-1.414 0l-5 5a1 1 0 101.414 1.414L8 9.414l4.293 4.293a1 1 0 001.414-1.414z"/>
</symbol>
<symbol id="icon-chevrons_right-arrow-outline" viewBox="0 0 16 16">
  <path fill-rule="evenodd" clip-rule="evenodd" d="M3.707 2.293a1 1 0 00-1.414 1.414L6.586 8l-4.293 4.293a1 1 0 101.414 1.414l5-5a1 1 0 000-1.414l-5-5zm5 0a1 1 0 00-1.414 1.414L11.586 8l-4.293 4.293a1 1 0 101.414 1.414l5-5a1 1 0 000-1.414l-5-5z"/>
</symbol>
<symbol id="icon-chevrons_left-arrow-outline" viewBox="0 0 16 16">
  <path d="M8.707 3.707a1 1 0 00-1.414-1.414l-5 5a1 1 0 000 1.414l5 5a1 1 0 001.414-1.414L4.414 8l4.293-4.293z"/>
  <path d="M13.707 3.707a1 1 0 00-1.414-1.414l-5 5a1 1 0 000 1.414l5 5a1 1 0 001.414-1.414L9.414 8l4.293-4.293z"/>
</symbol>
<symbol id="icon-chevrons_down-arrow-outline" viewBox="0 0 16 16">
  <path d="M8 9.001l5.686-5.298a.947.947 0 000-1.41 1.15 1.15 0 00-1.525 0l-4.166 3.88-4.167-3.88a1.124 1.124 0 00-1.514 0 .948.948 0 000 1.41L8 9z"/>
  <path d="M3.707 2.293a1 1 0 00-1.414 1.414l5 5a1 1 0 001.414 0l5-5a1 1 0 00-1.414-1.414L8 6.586 3.707 2.293z"/>
  <path d="M3.707 7.293a1 1 0 00-1.414 1.414l5 5a1 1 0 001.414 0l5-5a1 1 0 00-1.414-1.414L8 11.586 3.707 7.293z"/>
</symbol>
<symbol id="icon-chevron_up-arrow-outline" viewBox="0 0 16 16">
  <path fill-rule="evenodd" clip-rule="evenodd" d="M7.293 4.293a1 1 0 011.414 0l5 5a1 1 0 01-1.414 1.414L8 6.414l-4.293 4.293a1 1 0 01-1.414-1.414l5-5z"/>
</symbol>
<symbol id="icon-chevron_down-arrow-outline" viewBox="0 0 16 16">
  <path fill-rule="evenodd" clip-rule="evenodd" d="M2.293 5.293a1 1 0 011.414 0L8 9.586l4.293-4.293a1 1 0 111.414 1.414l-5 5a1 1 0 01-1.414 0l-5-5a1 1 0 010-1.414z"/>
</symbol>
<symbol id="icon-chevron_right-arrow-outline" viewBox="0 0 16 16">
  <path fill-rule="evenodd" clip-rule="evenodd" d="M5.293 2.293a1 1 0 011.414 0l5 5a1 1 0 010 1.414l-5 5a1 1 0 01-1.414-1.414L9.586 8 5.293 3.707a1 1 0 010-1.414z"/>
</symbol>
<symbol id="icon-chevron_left-arrow-outline" viewBox="0 0 16 16">
  <path fill-rule="evenodd" clip-rule="evenodd" d="M10.707 2.293a1 1 0 010 1.414L6.414 8l.293.293 4 4a1 1 0 01-1.414 1.414l-5-5a1 1 0 010-1.414l5-5a1 1 0 011.414 0z"/>
</symbol>
<symbol id="icon-arrow_corner_up_right-outline" viewBox="0 0 16 16">
  <path fill-rule="evenodd" clip-rule="evenodd" d="M9.293.293a1 1 0 011.414 0l5 5a1 1 0 010 1.414l-5 5a1 1 0 01-1.414-1.414L12.586 7H3a1 1 0 00-1 1v7a1 1 0 11-2 0V8a3 3 0 013-3h9.586L9.293 1.707a1 1 0 010-1.414z"/>
</symbol>
<symbol id="icon-arrow_corner_up_left-outline" viewBox="0 0 16 16">
  <path fill-rule="evenodd" clip-rule="evenodd" d="M6.707.293a1 1 0 010 1.414L3.414 5H13a3 3 0 013 3v7a1 1 0 11-2 0V8a1 1 0 00-1-1H3.414l3.293 3.293a1 1 0 11-1.414 1.414l-5-5a1 1 0 010-1.414l5-5a1 1 0 011.414 0z"/>
</symbol>
<symbol id="icon-arrow_corner_right_up-outline" viewBox="0 0 16 16">
  <path fill-rule="evenodd" clip-rule="evenodd" d="M9.293.293a1 1 0 011.414 0l5 5a1 1 0 01-1.414 1.414L11 3.414V13a3 3 0 01-3 3H1a1 1 0 110-2h7a1 1 0 001-1V3.414L5.707 6.707a1 1 0 01-1.414-1.414l5-5z"/>
</symbol>
<symbol id="icon-arrow_corner_right_down-outline" viewBox="0 0 16 16">
  <path fill-rule="evenodd" clip-rule="evenodd" d="M0 1a1 1 0 011-1h7a3 3 0 013 3v9.586l3.293-3.293a1 1 0 111.414 1.414l-5 5a1 1 0 01-1.414 0l-5-5a1 1 0 011.414-1.414L9 12.586V3a1 1 0 00-1-1H1a1 1 0 01-1-1z"/>
</symbol>
<symbol id="icon-arrow_corner_left_up-outline" viewBox="0 0 16 16">
  <path fill-rule="evenodd" clip-rule="evenodd" d="M5.293.293a1 1 0 011.414 0l5 5a1 1 0 01-1.414 1.414L7 3.414V13a1 1 0 001 1h7a1 1 0 110 2H8a3 3 0 01-3-3V3.414L1.707 6.707A1 1 0 01.293 5.293l5-5z"/>
</symbol>
<symbol id="icon-arrow_corner_left_down-outline" viewBox="0 0 16 16">
  <path fill-rule="evenodd" clip-rule="evenodd" d="M5 3a3 3 0 013-3h7a1 1 0 110 2H8a1 1 0 00-1 1v9.586l3.293-3.293a1 1 0 111.414 1.414l-5 5a1 1 0 01-1.414 0l-5-5a1 1 0 111.414-1.414L5 12.586V3z"/>
</symbol>
<symbol id="icon-arrow_corner_down_right-outline" viewBox="0 0 16 16">
  <path fill-rule="evenodd" clip-rule="evenodd" d="M1 0a1 1 0 011 1v7a1 1 0 001 1h9.586L9.293 5.707a1 1 0 011.414-1.414l5 5a1 1 0 010 1.414l-5 5a1 1 0 01-1.414-1.414L12.586 11H3a3 3 0 01-3-3V1a1 1 0 011-1z"/>
</symbol>
<symbol id="icon-arrow_corner_down_left-outline" viewBox="0 0 16 16">
  <path fill-rule="evenodd" clip-rule="evenodd" d="M15 0a1 1 0 011 1v7a3 3 0 01-3 3H3.414l3.293 3.293a1 1 0 11-1.414 1.414l-5-5a1 1 0 010-1.414l5-5a1 1 0 011.414 1.414L3.414 9H13a1 1 0 001-1V1a1 1 0 011-1z"/>
</symbol>
<symbol id="icon-arrow_upright-outline" viewBox="0 0 16 16">
  <path fill-rule="evenodd" clip-rule="evenodd" d="M5 3a1 1 0 011-1h7a1 1 0 011 1v7a1 1 0 11-2 0V5.414l-8.293 8.293a1 1 0 01-1.414-1.414L10.586 4H6a1 1 0 01-1-1z"/>
</symbol>
<symbol id="icon-arrow_upleft-outline" viewBox="0 0 16 16">
  <path fill-rule="evenodd" clip-rule="evenodd" d="M2 3a1 1 0 011-1h7a1 1 0 110 2H5.414l8.293 8.293a1 1 0 01-1.414 1.414L4 5.414V10a1 1 0 11-2 0V3z"/>
</symbol>
<symbol id="icon-arrow_downright-outline" viewBox="0 0 16 16">
  <path fill-rule="evenodd" clip-rule="evenodd" d="M2.293 2.293a1 1 0 011.414 0L12 10.586V6a1 1 0 112 0v7a1 1 0 01-1 1H6a1 1 0 110-2h4.586L2.293 3.707a1 1 0 010-1.414z"/>
</symbol>
<symbol id="icon-arrow_downleft-outline" viewBox="0 0 16 16">
  <path fill-rule="evenodd" clip-rule="evenodd" d="M13.707 2.293a1 1 0 010 1.414L5.414 12H10a1 1 0 110 2H3a1 1 0 01-1-1V6a1 1 0 012 0v4.586l8.293-8.293a1 1 0 011.414 0z"/>
</symbol>
<symbol id="icon-arrow_down-outline" viewBox="0 0 16 16">
  <path fill-rule="evenodd" clip-rule="evenodd" d="M8 0a1 1 0 011 1v11.586l3.293-3.293a1 1 0 111.414 1.414l-5 5a1 1 0 01-1.414 0l-5-5a1 1 0 011.414-1.414L7 12.586V1a1 1 0 011-1z"/>
</symbol>
<symbol id="icon-arrow_up-outline" viewBox="0 0 16 16">
  <path fill-rule="evenodd" clip-rule="evenodd" d="M7.293.293a1 1 0 011.414 0l5 5a1 1 0 01-1.414 1.414L9 3.414V15a1 1 0 11-2 0V3.414L3.707 6.707a1 1 0 01-1.414-1.414l5-5z"/>
</symbol>
<symbol id="icon-arrow_right-outline" viewBox="0 0 16 16">
  <path fill-rule="evenodd" clip-rule="evenodd" d="M9.293 2.293a1 1 0 011.414 0l5 5a1 1 0 010 1.414l-5 5a1 1 0 01-1.414-1.414L12.586 9H1a1 1 0 010-2h11.586L9.293 3.707a1 1 0 010-1.414z"/>
</symbol>
<symbol id="icon-arrow_left-outline" viewBox="0 0 16 16">
  <path fill-rule="evenodd" clip-rule="evenodd" d="M6.707 2.293a1 1 0 010 1.414L3.414 7H15a1 1 0 110 2H3.414l3.293 3.293a1 1 0 11-1.414 1.414l-5-5a1 1 0 010-1.414l5-5a1 1 0 011.414 0z"/>
</symbol>
<symbol id="icon-roll_left-triangle-filled" viewBox="0 0 16 16">
  <path d="M5.586 9.586l3 3a1.414 1.414 0 002.414-1V4.414a1.414 1.414 0 00-2.414-1l-3 3A2 2 0 005 7.828v.344a2 2 0 00.586 1.414z"/>
</symbol>
<symbol id="icon-roll_right-triangle-filled" viewBox="0 0 16 16">
  <path d="M10.414 6.414l-3-3a1.414 1.414 0 00-2.414 1V11.586a1.414 1.414 0 002.414 1l3-3A2 2 0 0011 8.172v-.344a2 2 0 00-.586-1.414z"/>
</symbol>
<symbol id="icon-roll_down-triangle-filled" viewBox="0 0 16 16">
  <path d="M6.414 10.414l-3-3a1.414 1.414 0 011-2.414H11.586a1.414 1.414 0 011 2.414l-3 3A2 2 0 018.172 11h-.344a2 2 0 01-1.414-.586z"/>
</symbol>
<symbol id="icon-roll_up-triangle-filled" viewBox="0 0 16 16">
  <path d="M6.414 5.586l-3 3a1.414 1.414 0 001 2.414H11.586a1.414 1.414 0 001-2.414l-3-3A2 2 0 008.172 5h-.344a2 2 0 00-1.414.586z"/>
</symbol>
<symbol id="icon-arrow_upright-cell-outline" viewBox="0 0 16 16">
  <path fill-rule="evenodd" clip-rule="evenodd" d="M6 7a1 1 0 010-2h4a1 1 0 011 1v4a1 1 0 11-2 0V8.414l-2.293 2.293a1 1 0 01-1.414-1.414L7.586 7H6z"/>
</symbol>
<symbol id="icon-sort_down-arrow-increase-outline" viewBox="0 0 16 16">
  <path fill-rule="evenodd" clip-rule="evenodd" d="M8 1a1 1 0 011 1v9.586l1.293-1.293a1 1 0 111.414 1.414l-3 3a1 1 0 01-1.414 0l-3-3a1 1 0 111.414-1.414L7 11.586V2a1 1 0 011-1z"/>
</symbol>
<symbol id="icon-sort_up-arrow-decrease-outline" viewBox="0 0 16 16">
  <path fill-rule="evenodd" clip-rule="evenodd" d="M7.293 1.293a1 1 0 011.414 0l3 3a1 1 0 01-1.414 1.414L9 4.414V14a1 1 0 11-2 0V4.414L5.707 5.707a1 1 0 01-1.414-1.414l3-3z"/>
</symbol>
<symbol id="icon-arrows_ccw-update-refresh-cycle-outline" viewBox="0 0 16 16">
  <path fill-rule="evenodd" clip-rule="evenodd" d="M1 7a1 1 0 102 0V5a1 1 0 011-1h7.586l-.293.293a1 1 0 001.414 1.414l2-2a1 1 0 000-1.414l-2-2a1 1 0 10-1.414 1.414l.293.293H4a3 3 0 00-3 3v2zm14 2a1 1 0 10-2 0v2a1 1 0 01-1 1H4.414l.293-.293a1 1 0 10-1.414-1.414l-2 2a1 1 0 000 1.414l2 2a1 1 0 001.414-1.414L4.414 14H12a3 3 0 003-3V9z"/>
</symbol>
<symbol id="icon-arrow_square_up-chevron-rectangle-filled" viewBox="0 0 16 16">
  <path fill-rule="evenodd" clip-rule="evenodd" d="M2 0a2 2 0 00-2 2v12a2 2 0 002 2h12a2 2 0 002-2V2a2 2 0 00-2-2H2zm2.293 8.293a1 1 0 001.414 1.414L8 7.414l2.293 2.293a1 1 0 001.414-1.414l-3-3a1 1 0 00-1.414 0l-3 3z"/>
</symbol>
<symbol id="icon-arrow_square_down-chevron-rectangle-filled" viewBox="0 0 16 16">
  <path fill-rule="evenodd" clip-rule="evenodd" d="M2 0a2 2 0 00-2 2v12a2 2 0 002 2h12a2 2 0 002-2V2a2 2 0 00-2-2H2zm9.707 7.707a1 1 0 00-1.414-1.414L8 8.586 5.707 6.293a1 1 0 00-1.414 1.414l3 3a1 1 0 001.414 0l3-3z"/>
</symbol>
<symbol id="icon-arrow_square_right-chevron-rectangle-filled" viewBox="0 0 16 16">
  <path fill-rule="evenodd" clip-rule="evenodd" d="M2 0a2 2 0 00-2 2v12a2 2 0 002 2h12a2 2 0 002-2V2a2 2 0 00-2-2H2zm5.707 4.293a1 1 0 00-1.414 1.414L8.586 8l-2.293 2.293a1 1 0 101.414 1.414l3-3a1 1 0 000-1.414l-3-3z"/>
</symbol>
<symbol id="icon-arrow_square_left-chevron-rectangle-filled" viewBox="0 0 16 16">
  <path fill-rule="evenodd" clip-rule="evenodd" d="M2 0a2 2 0 00-2 2v12a2 2 0 002 2h12a2 2 0 002-2V2a2 2 0 00-2-2H2zm6.293 11.707a1 1 0 001.414-1.414L7.414 8l2.293-2.293a1 1 0 00-1.414-1.414l-3 3a1 1 0 000 1.414l3 3z"/>
</symbol>
<symbol id="icon-arrow_round_up-sign-circle-filled" viewBox="0 0 16 16">
  <path fill-rule="evenodd" clip-rule="evenodd" d="M3.555 1.348a8 8 0 118.89 13.304 8 8 0 01-8.89-13.304zM7 11a1 1 0 102 0V7.414l1.293 1.293a1 1 0 101.414-1.414l-3-3a1 1 0 00-1.414 0l-3 3a1 1 0 001.414 1.414L7 7.414V11z"/>
</symbol>
<symbol id="icon-arrow_round_right-sign-circle-filled" viewBox="0 0 16 16">
  <path fill-rule="evenodd" clip-rule="evenodd" d="M3.555 1.348a8 8 0 118.89 13.304 8 8 0 01-8.89-13.304zM5 7a1 1 0 000 2h3.586l-1.293 1.293a1 1 0 101.414 1.414l3-3a1 1 0 000-1.414l-3-3a1 1 0 00-1.414 1.414L8.586 7H5z"/>
</symbol>
<symbol id="icon-arrow_round_left-sign-circle-filled" viewBox="0 0 16 16">
  <path fill-rule="evenodd" clip-rule="evenodd" d="M3.555 1.348a8 8 0 118.89 13.304 8 8 0 01-8.89-13.304zM11 9a1 1 0 100-2H7.414l1.293-1.293a1 1 0 00-1.414-1.414l-3 3a1 1 0 000 1.414l3 3a1 1 0 001.414-1.414L7.414 9H11z"/>
</symbol>
<symbol id="icon-arrow_round_down-sign-circle-filled" viewBox="0 0 16 16">
  <path fill-rule="evenodd" clip-rule="evenodd" d="M3.555 1.348a8 8 0 118.89 13.304 8 8 0 01-8.89-13.304zM9 5a1 1 0 00-2 0v3.586L5.707 7.293a1 1 0 00-1.414 1.414l3 3a1 1 0 001.414 0l3-3a1 1 0 00-1.414-1.414L9 8.586V5z"/>
</symbol>
<symbol id="icon-favorite_on-star-rating-filled" viewBox="0 0 16 16">
  <path d="M3.938 5.212l-2.733.547a1.499 1.499 0 00-.577 2.69l1.764 1.26a2 2 0 01.778 2.112L3 12.5l-.548 1.919a1.24 1.24 0 001.85 1.393l2.638-1.65a2 2 0 012.12 0l2.638 1.65a1.24 1.24 0 001.85-1.393L13 12.5l-.17-.679a2 2 0 01.778-2.112l1.764-1.26a1.499 1.499 0 00-.577-2.69l-2.733-.547a2 2 0 01-1.464-1.218L9.37.928a1.477 1.477 0 00-2.742 0L5.402 3.994a2 2 0 01-1.464 1.218z"/>
</symbol>
<symbol id="icon-favorite_off-star-rating-outline" viewBox="0 0 16 16">
  <path fill-rule="evenodd" clip-rule="evenodd" d="M4.302 15.812l2.638-1.65a2 2 0 012.12 0l2.638 1.65a1.24 1.24 0 001.85-1.393L13 12.5l-.17-.679a2 2 0 01.778-2.112l1.764-1.26a1.499 1.499 0 00-.577-2.69l-2.733-.547a2 2 0 01-1.464-1.218L9.37.928a1.477 1.477 0 00-2.742 0L5.402 3.994a2 2 0 01-1.464 1.218l-2.733.547a1.499 1.499 0 00-.577 2.69l1.764 1.26a2 2 0 01.778 2.112L3 12.5l-.548 1.919a1.24 1.24 0 001.85 1.393zm1.578-3.345l-.962.6.014-.05.178-.71A4 4 0 003.554 8.08l-.822-.588 1.598-.32a4 4 0 002.93-2.436L8 2.885l.74 1.852a4 4 0 002.93 2.437l1.598.32-.822.587a4 4 0 00-1.556 4.225l.178.711.014.05-.962-.6a4 4 0 00-4.24 0z"/>
</symbol>
<symbol id="icon-bookmark--tab-hold-filled" viewBox="0 0 16 16">
  <path d="M11 1H5a2 2 0 00-2 2v10.63a1.37 1.37 0 002.41.892l1.83-2.136a1 1 0 011.52 0l1.83 2.136A1.37 1.37 0 0013 13.63V3a2 2 0 00-2-2z"/>
</symbol>
<symbol id="icon-pin_off-hold-outline" viewBox="0 0 16 16">
  <path fill-rule="evenodd" clip-rule="evenodd" d="M.293.293a1 1 0 000 1.414l2.356 2.356a1 1 0 00-.356 1.644L5.586 9l-4.293 4.293a1 1 0 101.414 1.414L7 10.414l3.293 3.293a1 1 0 001.644-.356l2.351 2.351a1 1 0 001.414-1.414l-4.286-4.286.002-.002-1.414-1.414-.002.002L7.414 6l.002-.002-1.414-1.414L6 4.586 1.707.293a1 1 0 00-1.414 0zM12.71 5.88l-1.124 1.124L13 8.418l1.124-1.124a3 3 0 000-4.242L12.95 1.878a3 3 0 00-4.242 0L7.584 3.002l1.414 1.414 1.124-1.124a1 1 0 011.414 0l1.174 1.174a1 1 0 010 1.414z"/>
</symbol>
<symbol id="icon-pin_on-hold-outline" viewBox="0 0 16 16">
  <path fill-rule="evenodd" clip-rule="evenodd" d="M10.416 11.002l3.708-3.708a3 3 0 000-4.242L12.95 1.878a3 3 0 00-4.242 0L5 5.586 3.707 4.293a1 1 0 10-1.414 1.414L5.586 9l-4.293 4.293a1 1 0 101.414 1.414L7 10.414l3.293 3.293a1 1 0 001.414-1.414l-1.29-1.291zm-4-4.003l2.587 2.588L12.71 5.88a1 1 0 000-1.414l-1.174-1.174a1 1 0 00-1.414 0L6.415 7z"/>
</symbol>
<symbol id="icon-notify_off-bell-ring-filled" viewBox="0 0 16 16">
  <path fill-rule="evenodd" clip-rule="evenodd" d="M4.532 3.118l.002-.002L13.418 12h-.004l2.29 2.289a1 1 0 11-1.415 1.414L10.586 12H2a1 1 0 110-2h1V6.5c0-.616.124-1.203.348-1.738L.293 1.707A1 1 0 011.707.293l2.825 2.825zM13 6.5v1.918L6.067 1.485a2 2 0 013.917.766A4.502 4.502 0 0113 6.5zM6 14a2 2 0 104 0H6z"/>
</symbol>
<symbol id="icon-notify_on-bell-ring-filled" viewBox="0 0 16 16">
  <path fill-rule="evenodd" clip-rule="evenodd" d="M8 0a2 2 0 00-1.984 2.25A4.502 4.502 0 003 6.5V10H2a1 1 0 100 2h12a1 1 0 100-2h-1V6.5a4.502 4.502 0 00-3.016-4.25A2 2 0 008 0zM6 14a2 2 0 104 0H6z"/>
</symbol>
<symbol id="icon-visible_off-eye-view-outline" viewBox="0 0 16 16">
  <path fill-rule="evenodd" clip-rule="evenodd" d="M.293.293a1 1 0 000 1.414L2.44 3.855A9.187 9.187 0 00.403 6.049C.103 6.507 0 7.015 0 7.472v1.056c0 .457.104.965.403 1.423C1.147 11.09 3.493 14 8 14c1.496 0 2.755-.32 3.795-.79l2.496 2.495a1 1 0 001.414-1.414l-2.146-2.146.005-.003-1.429-1.429-.004.003-2.199-2.198.002-.006-2.446-2.446-.006.002-1.73-1.73.007-.001L4.21 2.789l-.005.002L1.707.293a1 1 0 00-1.414 0zm3.576 4.99a7.106 7.106 0 00-1.792 1.86.598.598 0 00-.077.33v1.055c0 .164.037.267.077.33C2.66 9.748 4.476 12 8 12c.845 0 1.592-.13 2.247-.338l-1.729-1.73a2.003 2.003 0 01-2.45-2.45L3.869 5.284z"/>
  <path d="M13.923 8.857a6.384 6.384 0 01-.2.288l1.426 1.426a8.48 8.48 0 00.448-.62c.3-.458.403-.966.403-1.423V7.472c0-.457-.104-.965-.403-1.423C14.853 4.91 12.507 2 8 2c-.467 0-.912.031-1.333.089L8.6 4.022c3.132.236 4.774 2.28 5.323 3.12.04.063.077.166.077.33v1.056a.598.598 0 01-.077.33z"/>
</symbol>
<symbol id="icon-visible_on-eye-view-outline" viewBox="0 0 16 16">
  <path d="M8 10a2 2 0 100-4 2 2 0 000 4z"/>
  <path fill-rule="evenodd" clip-rule="evenodd" d="M8 2C3.493 2 1.147 4.91.403 6.05.103 6.506 0 7.014 0 7.471v1.056c0 .457.104.965.403 1.423C1.147 11.09 3.493 14 8 14c4.507 0 6.853-2.91 7.597-4.05.3-.457.403-.965.403-1.422V7.472c0-.457-.104-.965-.403-1.423C14.853 4.91 12.507 2 8 2zM2.077 7.143C2.66 6.25 4.476 4 8 4s5.34 2.25 5.923 3.143c.04.062.077.165.077.33v1.055a.598.598 0 01-.077.33C13.34 9.748 11.524 12 8 12S2.66 9.75 2.077 8.857A.598.598 0 012 8.527V7.473c0-.164.037-.267.077-.33z"/>
</symbol>
<symbol id="icon-calendar_date-filled" viewBox="0 0 16 16">
  <path fill-rule="evenodd" clip-rule="evenodd" d="M2 0h1a2 2 0 104 0h2a2 2 0 104 0h1a2 2 0 012 2v11a3 3 0 01-3 3H3a3 3 0 01-3-3V2a2 2 0 012-2zm12 5H2v8a1 1 0 001 1h10a1 1 0 001-1V5zM4 8a1 1 0 011-1h1a1 1 0 011 1v3a1 1 0 11-2 0V9a1 1 0 01-1-1zm5 0a1 1 0 011-1h1a1 1 0 011 1v3a1 1 0 11-2 0V9a1 1 0 01-1-1z"/>
</symbol>
<symbol id="icon-calendar-date-filled" viewBox="0 0 16 16">
  <path fill-rule="evenodd" clip-rule="evenodd" d="M3 0H2a2 2 0 00-2 2v11a3 3 0 003 3h10a3 3 0 003-3V2a2 2 0 00-2-2h-1a2 2 0 11-4 0H7a2 2 0 11-4 0zM2 5h12v8a1 1 0 01-1 1H3a1 1 0 01-1-1V5z"/>
</symbol>
<symbol id="icon-calendar_today-date-filled" viewBox="0 0 16 16">
  <path fill-rule="evenodd" clip-rule="evenodd" d="M2 0h1a2 2 0 104 0h2a2 2 0 104 0h1a2 2 0 012 2v11a3 3 0 01-3 3H3a3 3 0 01-3-3V2a2 2 0 012-2zm12 5H2v8a1 1 0 001 1h10a1 1 0 001-1V5zM5.5 9a1.5 1.5 0 100 3h1a1.5 1.5 0 000-3h-1z"/>
</symbol>
<symbol id="icon-filter_small-conus-filled" viewBox="0 0 16 16">
  <path d="M6 4h-.586a1.414 1.414 0 00-1 2.414l2 2A2 2 0 017 9.828V11a1 1 0 102 0V9.828a2 2 0 01.586-1.414l2-2a1.414 1.414 0 00-1-2.414H6z"/>
</symbol>
<symbol id="icon-filter_clear-conus-x-filled" viewBox="0 0 16 16">
  <path fill-rule="evenodd" clip-rule="evenodd" d="M1.414 2h9.172a1.414 1.414 0 011 2.414l-3 3A2 2 0 008 8.828V13a1 1 0 01-1.6.8l-1.6-1.2A2 2 0 014 11V8.828a2 2 0 00-.586-1.414l-3-3a1.414 1.414 0 011-2.414zm12.878 6.293a1 1 0 111.414 1.414L14.414 11l1.292 1.293a1 1 0 01-1.414 1.414l-1.293-1.292-1.292 1.292a1 1 0 01-1.414-1.414l1.292-1.293-1.292-1.292a1 1 0 111.414-1.414L13 9.585l1.293-1.292z"/>
</symbol>
<symbol id="icon-filter-conus-filled" viewBox="0 0 16 16">
  <path d="M4 2h-.586a1.414 1.414 0 00-1 2.414l3 3A2 2 0 016 8.828V11a2 2 0 00.8 1.6l1.6 1.2A1 1 0 0010 13V8.828a2 2 0 01.586-1.414l3-3a1.414 1.414 0 00-1-2.414H4z"/>
</symbol>
<symbol id="icon-sort_ascending-row-line-outline" viewBox="0 0 16 16">
  <path d="M15 11H1a1 1 0 000 2h14a1 1 0 000-2zM.964 5h7.072A.983.983 0 009 4a.983.983 0 00-.964-1H.964A.983.983 0 000 4a.983.983 0 00.964 1zM.947 9h10.106A.975.975 0 0012 8a.975.975 0 00-.947-1H.947A.975.975 0 000 8a.975.975 0 00.947 1z"/>
</symbol>
<symbol id="icon-sort_descending-row-line-outline" viewBox="0 0 16 16">
  <path d="M16 4a1 1 0 00-1-1H1a1 1 0 000 2h14a1 1 0 001-1zM0 12a.983.983 0 00.964 1h7.072A.983.983 0 009 12a.983.983 0 00-.964-1H.964A.983.983 0 000 12zm0-4a.975.975 0 00.947 1h10.106A.975.975 0 0012 8a.975.975 0 00-.947-1H.947A.975.975 0 000 8z"/>
</symbol>
<symbol id="icon-menu_burger-line-list-filled" viewBox="0 0 16 16">
  <path d="M16 4a1 1 0 00-1-1H1a1 1 0 000 2h14a1 1 0 001-1zM0 12a.983.983 0 00.964 1h14.072A.983.983 0 0016 12a.983.983 0 00-.964-1H.964A.983.983 0 000 12zm0-4a.975.975 0 00.947 1h14.106A.975.975 0 0016 8a.975.975 0 00-.947-1H.947A.975.975 0 000 8z"/>
</symbol>
<symbol id="icon-grid_big-line-cell-filled" viewBox="0 0 16 16">
  <path d="M0 2c0-1 1-2 2-2h5v7H0V2zM14 0c1 0 2 1 2 2v5H9V0h5zM16 14c0 1-1 2-2 2H9V9h7v5zM2 16c-1 0-2-1-2-2V9h7v7H2z"/>
</symbol>
<symbol id="icon-grid_small-line-cell-filled" viewBox="0 0 16 16">
  <path d="M16 2c0-1-1-2-2-2h-2v4h4V2zM2 0C1 0 0 1 0 2v2h4V0H2zM0 14c0 1 1 2 2 2h2v-4H0v2zM14 16c1 0 2-1 2-2v-2h-4v4h2zM10 0H6v4h4V0zM6 16h4v-4H6v4zM16 10V6h-4v4h4zM0 6v4h4V6H0zM6 10h4V6H6v4z"/>
</symbol>
<symbol id="icon-panel_right-filled" viewBox="0 0 16 16">
  <path fill-rule="evenodd" clip-rule="evenodd" d="M2 0C1 0 0 1 0 2v12c0 1 1 2 2 2h12c1 0 2-1 2-2V2c0-1-1-2-2-2H2zm7 2a1 1 0 00-1 1v10a1 1 0 001 1h4a1 1 0 001-1V3a1 1 0 00-1-1H9z"/>
</symbol>
<symbol id="icon-panel_left-filled" viewBox="0 0 16 16">
  <path fill-rule="evenodd" clip-rule="evenodd" d="M2 0C1 0 0 1 0 2v12c0 1 1 2 2 2h12c1 0 2-1 2-2V2c0-1-1-2-2-2H2zm1 2a1 1 0 00-1 1v10a1 1 0 001 1h4a1 1 0 001-1V3a1 1 0 00-1-1H3z"/>
</symbol>
<symbol id="icon-cards-rectangle-filled" viewBox="0 0 16 16">
  <path d="M2 0a2 2 0 00-2 2v3h4V0H2zM0 14a2 2 0 002 2h2V7H0v7zM14 0a2 2 0 012 2v3h-4V0h2zM14 16a2 2 0 002-2V7h-4v9h2zM6 9V0h4v9H6zM6 16v-5h4v5H6z"/>
</symbol>
<symbol id="icon-checklist-line-row-filled" viewBox="0 0 16 16">
  <path fill-rule="evenodd" clip-rule="evenodd" d="M2 0a2 2 0 00-2 2v3a2 2 0 002 2h3a2 2 0 002-2V2a2 2 0 00-2-2H2zm7 3.5A1.5 1.5 0 0110.5 2h4a1.5 1.5 0 010 3h-4A1.5 1.5 0 019 3.5zM2 9a2 2 0 00-2 2v3a2 2 0 002 2h3a2 2 0 002-2v-3a2 2 0 00-2-2H2zm8.5 2a1.5 1.5 0 000 3h4a1.5 1.5 0 000-3h-4z"/>
</symbol>
<symbol id="icon-list_bullet-line-mark-row-filled" viewBox="0 0 16 16">
  <path fill-rule="evenodd" clip-rule="evenodd" d="M3.5 0a3.5 3.5 0 100 7 3.5 3.5 0 000-7zm7 2a1.5 1.5 0 100 3h4a1.5 1.5 0 000-3h-4zM0 12.5a3.5 3.5 0 117 0 3.5 3.5 0 01-7 0zM10.5 11a1.5 1.5 0 000 3h4a1.5 1.5 0 000-3h-4z"/>
</symbol>
<symbol id="icon-list-line-row-filled" viewBox="0 0 16 16">
  <path fill-rule="evenodd" clip-rule="evenodd" d="M2 0a2 2 0 00-2 2v3a2 2 0 002 2h12a2 2 0 002-2V2a2 2 0 00-2-2H2zm0 9a2 2 0 00-2 2v3a2 2 0 002 2h12a2 2 0 002-2v-3a2 2 0 00-2-2H2z"/>
</symbol>
<symbol id="icon-user_delete-x-clear-filled" viewBox="0 0 16 16">
  <path fill-rule="evenodd" clip-rule="evenodd" d="M4.292.293a1 1 0 011.414 1.414L4.414 3l1.292 1.293a1 1 0 11-1.414 1.414L2.999 4.414 1.707 5.706A1 1 0 01.293 4.292l1.292-1.293L.293 1.707A1 1 0 011.707.293L3 1.585 4.292.293zM8 7a3 3 0 116 0 3 3 0 01-6 0zm-2 7.835C6 15.478 6.522 16 7.165 16h7.67c.643 0 1.165-.522 1.165-1.165 0-.28-.1-.552-.303-.746C15.019 13.44 13.259 12 11 12c-2.26 0-4.019 1.44-4.697 2.09a1.021 1.021 0 00-.303.745z"/>
</symbol>
<symbol id="icon-users-minus-filled" viewBox="0 0 16 16">
  <path fill-rule="evenodd" clip-rule="evenodd" d="M2 5a3 3 0 116 0 3 3 0 01-6 0zm-2 7.835C0 13.478.522 14 1.165 14h7.67C9.478 14 10 13.478 10 12.835c0-.28-.1-.552-.303-.746C9.019 11.44 7.26 10 5 10 2.74 10 .981 11.44.303 12.09a1.021 1.021 0 00-.303.745zm9.334-5.34A4.977 4.977 0 0010 5c0-.909-.242-1.76-.666-2.495a3 3 0 110 4.99zM14.835 14H11.78c.143-.36.221-.754.221-1.165a3.02 3.02 0 00-.92-2.19c-.166-.16-.4-.372-.697-.61.2-.023.407-.035.617-.035 2.26 0 4.019 1.44 4.697 2.09.203.193.303.465.303.745 0 .643-.521 1.165-1.165 1.165z"/>
</symbol>
<symbol id="icon-user_add-plus-filled" viewBox="0 0 16 16">
  <path fill-rule="evenodd" clip-rule="evenodd" d="M4 1a1 1 0 00-2 0v1H1a1 1 0 000 2h1v1a1 1 0 002 0V4h1a1 1 0 000-2H4V1zm7 3a3 3 0 100 6 3 3 0 000-6zM7.165 16A1.165 1.165 0 016 14.835c0-.28.1-.552.303-.746C6.981 13.44 8.74 12 11 12c2.26 0 4.019 1.44 4.697 2.09.203.193.303.465.303.745 0 .643-.522 1.165-1.165 1.165h-7.67z"/>
</symbol>
<symbol id="icon-user_delete-minus-filled" viewBox="0 0 16 16">
  <path fill-rule="evenodd" clip-rule="evenodd" d="M1 0a1 1 0 100 2h4a1 1 0 000-2H1zm7 7a3 3 0 116 0 3 3 0 01-6 0zm-2 7.835C6 15.478 6.522 16 7.165 16h7.67c.643 0 1.165-.522 1.165-1.165 0-.28-.1-.552-.303-.746C15.019 13.44 13.259 12 11 12c-2.26 0-4.019 1.44-4.697 2.09a1.021 1.021 0 00-.303.745z"/>
</symbol>
<symbol id="icon-user_check-filled" viewBox="0 0 16 16">
  <path fill-rule="evenodd" clip-rule="evenodd" d="M5.707 1.707A1 1 0 004.293.293L2 2.586l-.293-.293A1 1 0 00.293 3.707l1 1a1 1 0 001.414 0l3-3zM11 4a3 3 0 100 6 3 3 0 000-6zM7.165 16A1.165 1.165 0 016 14.835c0-.28.1-.552.303-.746C6.981 13.44 8.74 12 11 12c2.26 0 4.019 1.44 4.697 2.09.203.193.303.465.303.745 0 .643-.522 1.165-1.165 1.165h-7.67z"/>
</symbol>
<symbol id="icon-user-filled" viewBox="0 0 16 16">
  <path d="M8 2a3 3 0 100 6 3 3 0 000-6zM4.165 14A1.165 1.165 0 013 12.835c0-.28.1-.552.303-.746C3.981 11.44 5.74 10 8 10c2.26 0 4.019 1.44 4.697 2.09.203.193.303.465.303.745 0 .643-.522 1.165-1.165 1.165h-7.67z"/>
</symbol>
<symbol id="icon-color-palette-paint-filled" viewBox="0 0 16 16">
  <path fill-rule="evenodd" clip-rule="evenodd" d="M16 8c0 .669-.082 1.319-.237 1.94-.163.654-.786 1.06-1.46 1.06-.787 0-1.429-.61-1.96-1.19a2.5 2.5 0 00-4.34 1.785c.01.325.006.656.002.984L8 12.99V14c0 1.105-.91 2.026-1.98 1.753A8 8 0 1116 8zM9 3.5a1.5 1.5 0 11-3 0 1.5 1.5 0 013 0zM3.5 8a1.5 1.5 0 100-3 1.5 1.5 0 000 3zM6 11.5a1.5 1.5 0 11-3 0 1.5 1.5 0 013 0zm5-6a1.5 1.5 0 103 0 1.5 1.5 0 00-3 0z"/>
</symbol>
<symbol id="icon-light_on-sun-day-filled" viewBox="0 0 16 16">
  <path fill-rule="evenodd" clip-rule="evenodd" d="M12 8a4 4 0 11-8 0 4 4 0 018 0zM1 7a1 1 0 100 2 1 1 0 000-2zm6 8a1 1 0 112 0 1 1 0 01-2 0zm8-8a1 1 0 100 2 1 1 0 000-2zM3 14a1 1 0 110-2 1 1 0 010 2zm9-1a1 1 0 102 0 1 1 0 00-2 0z"/>
  <path d="M3 4a1 1 0 110-2 1 1 0 010 2zM12 3a1 1 0 102 0 1 1 0 00-2 0zM7 1a1 1 0 112 0 1 1 0 01-2 0z"/>
</symbol>
<symbol id="icon-light_off-moon-night-filled" viewBox="0 0 16 16">
  <path fill-rule="evenodd" clip-rule="evenodd" d="M13.995 8.245a4.5 4.5 0 01-6.24-6.24 6 6 0 106.24 6.24z"/>
</symbol>
<symbol id="icon-light_off-bulb-dark-filled" viewBox="0 0 16 16">
  <path fill-rule="evenodd" clip-rule="evenodd" d="M7 0a1 1 0 000 2h2a1 1 0 000-2H7zm3 8a2 2 0 11-4 0 2 2 0 014 0zm2 0a4 4 0 11-8 0 4 4 0 018 0z"/>
</symbol>
<symbol id="icon-light_on-bulb-filled" viewBox="0 0 16 16">
  <path fill-rule="evenodd" clip-rule="evenodd" d="M6 1a1 1 0 011-1h2a1 1 0 110 2H7a1 1 0 01-1-1zm6 7a4 4 0 11-8 0 4 4 0 018 0zM1 7a1 1 0 100 2 1 1 0 000-2zm6 8a1 1 0 112 0 1 1 0 01-2 0zm8-8a1 1 0 100 2 1 1 0 000-2zM3 14a1 1 0 110-2 1 1 0 010 2zm9-1a1 1 0 102 0 1 1 0 00-2 0z"/>
</symbol>
<symbol id="icon-settings_slider_vertical-tune-filled" viewBox="0 0 16 16">
  <path d="M2 0a1 1 0 011 1v1.268a2 2 0 010 3.464V15a1 1 0 11-2 0V5.732a2 2 0 010-3.464V1a1 1 0 011-1zM10 12a2 2 0 01-1 1.732V15a1 1 0 11-2 0v-1.268a2 2 0 010-3.464V1a1 1 0 012 0v9.268A2 2 0 0110 12zM15 8.732a2 2 0 000-3.464V1a1 1 0 10-2 0v4.268a2 2 0 000 3.464V15a1 1 0 102 0V8.732z"/>
</symbol>
<symbol id="icon-settings_slider_horizont-tune-filled" viewBox="0 0 16 16">
  <path d="M10 2a2 2 0 104 0 2 2 0 00-4 0zM2 8a2 2 0 104 0 2 2 0 00-4 0zM7 14a2 2 0 104 0 2 2 0 00-4 0z"/>
  <path d="M15 3a1 1 0 100-2H1a1 1 0 000 2h14zM15 9a1 1 0 100-2H1a1 1 0 000 2h14zM15 15a1 1 0 100-2H1a1 1 0 100 2h14z"/>
</symbol>
<symbol id="icon-settings-star-gear-filled" viewBox="0 0 16 16">
  <g clip-path="url(#clip0)">
    <path fill-rule="evenodd" clip-rule="evenodd" d="M6 2a2 2 0 114 0c0 .205.13.385.319.464.54.227 1.042.531 1.488.899a.172.172 0 00.196.017 2 2 0 112 3.464.171.171 0 00-.083.176 6.042 6.042 0 010 1.96c-.011.07.021.14.083.177a2 2 0 01-2 3.464.173.173 0 00-.196.017 5.997 5.997 0 01-1.489.898A.509.509 0 0010 14a2 2 0 11-4 0 .509.509 0 00-.318-.464 6 6 0 01-1.495-.903.16.16 0 00-.183-.016 2 2 0 01-2-3.465.16.16 0 00.077-.164 6.042 6.042 0 010-1.98.152.152 0 00-.073-.158 2 2 0 012-3.464.153.153 0 00.175-.015c.449-.371.953-.678 1.499-.907A.509.509 0 006 2zm-.616 4.53a2.09 2.09 0 00.034-.06 2.999 2.999 0 015.163 0l.017.03.018.03c.245.435.384.936.384 1.47a2.986 2.986 0 01-.402 1.5l-.017.03a2.998 2.998 0 01-5.163 0l-.016-.03A2.986 2.986 0 015 8c0-.534.14-1.035.384-1.47z"/>
  </g>
  <defs>
    <clipPath id="clip0">
      <path d="M0 0h16v16H0z"/>
    </clipPath>
  </defs>
</symbol>
<symbol id="icon-menu_more_horizont_small-point-circle-dot-filled" viewBox="0 0 16 16">
  <path fill-rule="evenodd" clip-rule="evenodd" d="M3 8a1 1 0 112 0 1 1 0 01-2 0zm4 0a1 1 0 112 0 1 1 0 01-2 0zm5-1a1 1 0 100 2 1 1 0 000-2z"/>
</symbol>
<symbol id="icon-menu_more_vertical-point-circle-dot-filled" viewBox="0 0 16 16">
  <path d="M8 4a2 2 0 100-4 2 2 0 000 4zm0 2a2 2 0 100 4 2 2 0 000-4zm0 6a2 2 0 100 4 2 2 0 000-4z"/>
</symbol>
<symbol id="icon-menu_more_horizont-point-circle-dot-filled" viewBox="0 0 16 16">
  <path d="M2 6a2 2 0 100 4 2 2 0 000-4zm12 0a2 2 0 100 4 2 2 0 000-4zM8 6a2 2 0 100 4 2 2 0 000-4z"/>
</symbol>
<symbol id="icon-menu_full-point-circle-dot-filled" viewBox="0 0 16 16">
  <path d="M2 12a2 2 0 100 4 2 2 0 000-4zm12 0a2 2 0 100 4 2 2 0 000-4zm-6 0a2 2 0 100 4 2 2 0 000-4zM2 6a2 2 0 100 4 2 2 0 000-4zm12 0a2 2 0 100 4 2 2 0 000-4zM8 6a2 2 0 100 4 2 2 0 000-4zM2 0a2 2 0 100 4 2 2 0 000-4zm12 4a2 2 0 100-4 2 2 0 000 4zM8 0a2 2 0 100 4 2 2 0 000-4z"/>
</symbol>
<symbol id="icon-file-outline" viewBox="0 0 16 16">
  <path fill-rule="evenodd" clip-rule="evenodd" d="M5 0a3 3 0 00-3 3v10a3 3 0 003 3h6a3 3 0 003-3V6h-3a3 3 0 01-3-3V0H5zM4 3a1 1 0 011-1h1v1a5 5 0 005 5h1v5a1 1 0 01-1 1H5a1 1 0 01-1-1V3zm8-1l-2-2v3a1 1 0 001 1h3l-2-2z"/>
</symbol>
<symbol id="icon-file_pdf-outline" viewBox="0 0 16 16">
  <path fill-rule="evenodd" clip-rule="evenodd" d="M5 2a1 1 0 00-1 1v4a1 1 0 01-2 0V3a3 3 0 013-3h3v3a3 3 0 003 3h2a1 1 0 110 2h-2a5 5 0 01-5-5V2H5zm7 0l-2-2v3a1 1 0 001 1h3l-2-2zM1 10H0v5a1 1 0 102 0h.5a2.5 2.5 0 000-5H1zm1.5 3H2v-1h.5a.5.5 0 010 1zM14 10a2 2 0 00-2 2v3a1 1 0 102 0v-.5h1a1 1 0 100-2h-1V12h1a1 1 0 100-2h-1zm-8 0h2a3 3 0 110 6H6v-6zm2 4a1 1 0 100-2v2z"/>
</symbol>
<symbol id="icon-file_xls-outline" viewBox="0 0 16 16">
  <path fill-rule="evenodd" clip-rule="evenodd" d="M5 2a1 1 0 00-1 1v4a1 1 0 01-2 0V3a3 3 0 013-3h3v3a3 3 0 003 3h2a1 1 0 110 2h-2a5 5 0 01-5-5V2H5zm7 0l-2-2v3a1 1 0 001 1h3l-2-2zM.293 10.293a1 1 0 011.414 0L3 11.586l1.293-1.293a1 1 0 011.414 1.414L4.414 13l1.293 1.293a1 1 0 11-1.414 1.414L3 14.414l-1.293 1.293a1 1 0 11-1.414-1.414L1.586 13 .293 11.707a1 1 0 010-1.414zM7 14v-3a1 1 0 012 0v3h1a1 1 0 010 2H9a2 2 0 01-2-2zm7.236-2H15a1 1 0 100-2h-1.073a1.927 1.927 0 00-.862 3.65l.699.35H13a1 1 0 000 2h1.073a1.927 1.927 0 00.862-3.65l-.699-.35z"/>
</symbol>
<symbol id="icon-file_doc-outline" viewBox="0 0 16 16">
  <path fill-rule="evenodd" clip-rule="evenodd" d="M5 2a1 1 0 00-1 1v4a1 1 0 01-2 0V3a3 3 0 013-3h3v3a3 3 0 003 3h2a1 1 0 110 2h-2a5 5 0 01-5-5V2H5zm7 0l-2-2v3a1 1 0 001 1h3l-2-2zM8 12.5a.5.5 0 011 0v1a.5.5 0 01-1 0v-1zm.5-2.5A2.5 2.5 0 006 12.5v1a2.5 2.5 0 005 0v-1A2.5 2.5 0 008.5 10zM0 10h2a3 3 0 110 6H0v-6zm2 4a1 1 0 100-2v2zm12-1a1 1 0 011-1h1v-2h-1a3 3 0 100 6h1v-2h-1a1 1 0 01-1-1z"/>
</symbol>
<symbol id="icon-file-filled" viewBox="0 0 16 16">
  <path fill-rule="evenodd" clip-rule="evenodd" d="M4 0h4v3a3 3 0 003 3h3v8a2 2 0 01-2 2H4a2 2 0 01-2-2V2a2 2 0 012-2zm6 0v3a1 1 0 001 1h3l-4-4z"/>
</symbol>
<symbol id="icon-file_txt-text-filled" viewBox="0 0 16 16">
  <path fill-rule="evenodd" clip-rule="evenodd" d="M4 0h4v3a3 3 0 003 3h3v2H2V2a2 2 0 012-2zm6 0v3a1 1 0 001 1h3l-4-4zM6.707 10.293a1 1 0 10-1.414 1.414L6.586 13l-1.293 1.293a1 1 0 101.414 1.414L8 14.414l1.293 1.293a1 1 0 001.414-1.414L9.414 13l1.293-1.293a1 1 0 00-1.414-1.414L8 11.586l-1.293-1.293zM13 10a1 1 0 100 2v3a1 1 0 002 0v-3a1 1 0 000-2h-2zM1 10a1 1 0 100 2v3a1 1 0 102 0v-3a1 1 0 100-2H1z"/>
</symbol>
<symbol id="icon-file_image-picture-filled" viewBox="0 0 16 16">
  <path fill-rule="evenodd" clip-rule="evenodd" d="M4 0h4v3a3 3 0 003 3h3v8a2 2 0 01-2 2H4a2 2 0 01-2-2V2a2 2 0 012-2zm6 0v3a1 1 0 001 1h3l-4-4zM4 8.5a1.5 1.5 0 113 0 1.5 1.5 0 01-3 0zM5 12a1 1 0 100 2h5a2 2 0 002-2V9.236a1.236 1.236 0 00-2.342-.553l-1.105 2.211A2 2 0 016.763 12H5z"/>
</symbol>
<symbol id="icon-file_pdf-filled" viewBox="0 0 16 16">
  <path fill-rule="evenodd" clip-rule="evenodd" d="M4 0h4v3a3 3 0 003 3h3v2H2V2a2 2 0 012-2zm6 0v3a1 1 0 001 1h3l-4-4zM1 10H0v5a1 1 0 102 0h.5a2.5 2.5 0 000-5H1zm1.5 3H2v-1h.5a.5.5 0 010 1zM14 10a2 2 0 00-2 2v3a1 1 0 102 0v-.5h1a1 1 0 100-2h-1V12h1a1 1 0 100-2h-1zm-8 0h2a3 3 0 110 6H6v-6zm2 4a1 1 0 100-2v2z"/>
</symbol>
<symbol id="icon-file_xls-excell-filled" viewBox="0 0 16 16">
  <path fill-rule="evenodd" clip-rule="evenodd" d="M4 0h4v3a3 3 0 003 3h3v2H2V2a2 2 0 012-2zm6 0v3a1 1 0 001 1h3l-4-4zM.293 10.293a1 1 0 011.414 0L3 11.586l1.293-1.293a1 1 0 011.414 1.414L4.414 13l1.293 1.293a1 1 0 11-1.414 1.414L3 14.414l-1.293 1.293a1 1 0 11-1.414-1.414L1.586 13 .293 11.707a1 1 0 010-1.414zM7 14v-3a1 1 0 012 0v3h1a1 1 0 010 2H9a2 2 0 01-2-2zm7.236-2H15a1 1 0 100-2h-1.073a1.927 1.927 0 00-.862 3.65l.699.35H13a1 1 0 000 2h1.073a1.927 1.927 0 00.862-3.65l-.699-.35z"/>
</symbol>
<symbol id="icon-file_doc-word-filled" viewBox="0 0 16 16">
  <path fill-rule="evenodd" clip-rule="evenodd" d="M4 0h4v3a3 3 0 003 3h3v2H2V2a2 2 0 012-2zm6 0v3a1 1 0 001 1h3l-4-4zM1 10H0v6h2a3 3 0 100-6H1zm2 3a1 1 0 01-1 1v-2a1 1 0 011 1zm5-.5a.5.5 0 011 0v1a.5.5 0 01-1 0v-1zm.5-2.5A2.5 2.5 0 006 12.5v1a2.5 2.5 0 005 0v-1A2.5 2.5 0 008.5 10zm6.5 2a1 1 0 100 2h1v2h-1a3 3 0 110-6h1v2h-1z"/>
</symbol>
<symbol id="icon-worker-mer-filled" viewBox="0 0 16 16">
  <path d="M15 5c.5 0 1 .448 1 1s-.5 1-1 1H1c-.5 0-1-.448-1-1s.5-1 1-1C1 5 2.182 2.045 5 .679V3c0 .5.448 1 1 1s1-.5 1-1V.07a7.151 7.151 0 012 0V3c0 .5.448 1 1 1s1-.5 1-1V.679C13.818 2.045 15 5 15 5zM4 9s.5 1 1.5 1S7 9 7 9h2s.5 1 1.5 1S12 9 12 9h3c.5 0 1 .448 1 1s-.5 1-1 1h-1v4c0 .5-.448 1-1 1s-1-.5-1-1v-1c0-1-1-2-2-2H6c-1 0-2 1-2 2v1c0 .5-.448 1-1 1s-1-.5-1-1v-4H1c-.5 0-1-.448-1-1s.5-1 1-1h3z"/>
  <path d="M9 14H7c-.5 0-1 .448-1 1s.5 1 1 1h2c.5 0 1-.448 1-1s-.5-1-1-1z"/>
</symbol>
<symbol id="icon-well-pump-outline" viewBox="0 0 16 16">
  <path fill-rule="evenodd" clip-rule="evenodd" d="M5 0a1 1 0 100 2h1.483L1.081 14.606a1 1 0 101.838.788l1.413-3.296L12.44 13.9l.64 1.494a1 1 0 101.838-.788L9.517 2H11a1 1 0 100-2H5zm6.47 11.636l-1.226-2.862-3.404 1.833 4.63 1.029zM9.453 6.928L8 3.538 5.676 8.963l3.777-2.034z"/>
</symbol>
<symbol id="icon-ruble-money-outline" viewBox="0 0 16 16">
  <path fill-rule="evenodd" clip-rule="evenodd" d="M6 4V3h4a2 2 0 010 4H6V4zm4 5H6v2h4a1 1 0 110 2H6v1a1 1 0 11-2 0v-1H3a1 1 0 110-2h1V9H3a1 1 0 010-2h1V2a1 1 0 011-1h5a4 4 0 110 8z"/>
</symbol>
<symbol id="icon-book-guide-filled" viewBox="0 0 16 16">
  <path fill-rule="evenodd" clip-rule="evenodd" d="M3.728.095L8 1.163 12.272.095A3 3 0 0116 3.005v7.653a3 3 0 01-2.272 2.91L10 14.5A1.5 1.5 0 018.5 16h-1A1.5 1.5 0 016 14.5l-3.728-.932A3 3 0 010 10.658V3.005A3 3 0 013.728.095zM9.74 3.301l3-.804A1 1 0 0114 3.463v6.77a1 1 0 01-.741.966l-3 .804A1 1 0 019 11.037v-6.77a1 1 0 01.741-.966z"/>
</symbol>
<symbol id="icon-map-point-dot-filled" viewBox="0 0 16 16">
  <path fill-rule="evenodd" clip-rule="evenodd" d="M8 16a2.796 2.796 0 01-2.386-1.313c-.554-.893-1.441-2.39-2.194-3.97C2.692 9.19 2 7.405 2 6a6 6 0 1112 0c0 1.405-.692 3.189-1.42 4.717-.753 1.58-1.64 3.076-2.194 3.97A2.796 2.796 0 018 16zm0-7a3 3 0 100-6 3 3 0 000 6z"/>
</symbol>
<symbol id="icon-crosshair-aim-filled" viewBox="0 0 16 16">
  <path fill-rule="evenodd" clip-rule="evenodd" d="M7 1a1 1 0 012 0v1c0 .028-.001.055-.003.082a6.005 6.005 0 014.92 4.921C13.946 7.001 13.973 7 14 7h1a1 1 0 110 2h-1c-.028 0-.055-.001-.082-.003a6.005 6.005 0 01-4.921 4.92c.002.028.003.055.003.083v1a1 1 0 11-2 0v-1c0-.028.001-.055.003-.082a6.005 6.005 0 01-4.92-4.921A1.012 1.012 0 012 9H1a1 1 0 010-2h1c.028 0 .055.001.082.003a6.005 6.005 0 014.921-4.92A1.012 1.012 0 017 2V1zM4 8a4 4 0 118 0 4 4 0 01-8 0zm4 2a2 2 0 100-4 2 2 0 000 4z"/>
</symbol>
<symbol id="icon-equipment-motor-filled" viewBox="0 0 16 16">
  <path fill-rule="evenodd" clip-rule="evenodd" d="M8 4h1a1 1 0 000-2H5a1 1 0 000 2h1v2a2 2 0 00-2 2H2V7a1 1 0 00-2 0v4a1 1 0 102 0v-1h2v2a2 2 0 002 2h4a2 2 0 002-2v-1h2v1a1 1 0 102 0V7a1 1 0 10-2 0v1h-2a2 2 0 00-2-2H8V4z"/>
</symbol>
<symbol id="icon-repairs-wrench-settings-filled" viewBox="0 0 16 16">
  <path fill-rule="evenodd" clip-rule="evenodd" d="M0 3.5c0-.413.071-.809.203-1.176L1.439 3.56a1.5 1.5 0 102.122-2.122L2.324.203a3.5 3.5 0 014.474 4.474l1.556 1.555 3.714-3.714a2 2 0 111.414 1.414L9.768 7.646l1.556 1.557a3.5 3.5 0 014.474 4.474l-1.237-1.238a1.5 1.5 0 00-2.122 2.122l1.237 1.236a3.5 3.5 0 01-4.474-4.474L7.647 9.769 5.934 11.48a2 2 0 01-.518 1.932l-2 2.001a2 2 0 11-2.83-2.828l2.002-2.001a1.999 1.999 0 011.932-.518l1.712-1.712-1.556-1.557A3.5 3.5 0 010 3.5z"/>
</symbol>
<symbol id="icon-chess-filled" viewBox="0 0 16 16">
  <path fill-rule="evenodd" clip-rule="evenodd" d="M10 3a2 2 0 01-1 1.732V10h4V7.732a2 2 0 112 0V13a2 2 0 01-2 2H3a2 2 0 01-2-2V7.732a2 2 0 112 0V10h4V4.732A2 2 0 1110 3z"/>
</symbol>
<symbol id="icon-fire-gas-burn-filled" viewBox="0 0 16 16">
  <path fill-rule="evenodd" clip-rule="evenodd" d="M7 1.745A.745.745 0 006.255 1a.677.677 0 00-.449.162C5.006 1.857 2 4.752 2 9a6 6 0 0012 0c0-3.234-1.307-5.16-1.808-5.78a.615.615 0 00-.485-.22.707.707 0 00-.707.707V5a2 2 0 11-4 0V1.745z"/>
</symbol>
<symbol id="icon-faucet-water-oil-filled" viewBox="0 0 16 16">
  <path d="M4 2a2 2 0 114 0v1h3.5A3.5 3.5 0 0115 6.5V8a2 2 0 11-4 0V7H8v7a2 2 0 11-4 0V7H3a2 2 0 110-4h1V2zM13 16a2 2 0 100-4 2 2 0 000 4z"/>
</symbol>
<symbol id="icon-drop-water-oil-filled" viewBox="0 0 16 16">
  <path fill-rule="evenodd" clip-rule="evenodd" d="M5.614 1.313A2.796 2.796 0 018 0c.955 0 1.866.475 2.386 1.313.554.894 1.441 2.39 2.194 3.97C13.308 6.81 14 8.595 14 10a6 6 0 01-12 0c0-1.405.692-3.189 1.42-4.717.753-1.58 1.64-3.076 2.194-3.97z"/>
</symbol>
<symbol id="icon-assembly-motor-outline" viewBox="0 0 16 16">
  <path fill-rule="evenodd" clip-rule="evenodd" d="M2 4a3 3 0 013-3h3a3 3 0 013 3v3h2V2a1 1 0 112 0v4a1 1 0 011 1v2a1 1 0 01-1 1v4a1 1 0 11-2 0V9h-2v3a3 3 0 01-3 3H5a3 3 0 01-3-3v-1a2 2 0 01-2-2V7a2 2 0 012-2V4zm7 4V7H4v2h5V8zM5 3a1 1 0 00-1 1v1h5V4a1 1 0 00-1-1H5zm-1 8v1a1 1 0 001 1h3a1 1 0 001-1v-1H4z"/>
</symbol>
<symbol id="icon-motor-outline" viewBox="0 0 16 16">
  <path fill-rule="evenodd" clip-rule="evenodd" d="M5 1a3 3 0 00-3 3v1a2 2 0 00-2 2v2a2 2 0 002 2v1a3 3 0 003 3h6a3 3 0 003-3v-2a2 2 0 100-4V4a3 3 0 00-3-3H5zm7 7V7H4v2h8V8zm0 3H4v1a1 1 0 001 1h6a1 1 0 001-1v-1zm0-6V4a1 1 0 00-1-1H5a1 1 0 00-1 1v1h8z"/>
</symbol>
<symbol id="icon-pump-outline" viewBox="0 0 16 16">
  <path fill-rule="evenodd" clip-rule="evenodd" d="M5 2a3 3 0 00-3 3v1a2 2 0 100 4v1a3 3 0 003 3h6a3 3 0 003-3 2 2 0 002-2V7a2 2 0 00-2-2 3 3 0 00-3-3H5zm7 5V5a1 1 0 00-1-1H9v8h2a1 1 0 001-1V7zm-8 4V5a1 1 0 011-1h2v8H5a1 1 0 01-1-1z"/>
</symbol>
<symbol id="icon-cutter-squre-rectangle-outline" viewBox="0 0 16 16">
  <path fill-rule="evenodd" clip-rule="evenodd" d="M7 0a1 1 0 00-1 1v1H4a3 3 0 00-3 3v6a3 3 0 003 3h2v1a1 1 0 001 1h2a1 1 0 001-1v-1h2a3 3 0 003-3V5a3 3 0 00-3-3h-2V1a1 1 0 00-1-1H7zM3.063 4.65L10.414 12H12a1 1 0 00.937-.65L5.586 4H4a1 1 0 00-.937.65zM7.586 12L3 7.414V11a1 1 0 001 1h3.586zM13 5v3.586L8.414 4H12a1 1 0 011 1z"/>
</symbol>
<symbol id="icon-drop_half-liquid-filled" viewBox="0 0 16 16">
  <path fill-rule="evenodd" clip-rule="evenodd" d="M5.614 1.313A2.796 2.796 0 018 0c.955 0 1.866.475 2.386 1.313.554.894 1.441 2.39 2.194 3.97C13.308 6.81 14 8.595 14 10a6 6 0 01-12 0c0-1.405.692-3.189 1.42-4.717.753-1.58 1.64-3.076 2.194-3.97zM12 10c0-.906-.495-2.323-1.226-3.857-.707-1.484-1.551-2.911-2.088-3.775A.797.797 0 008 2a1 1 0 00-1 1v10a1 1 0 001 1 4 4 0 004-4z"/>
</symbol>
<symbol id="icon-dashboard-speed-value-outline" viewBox="0 0 16 16">
  <path fill-rule="evenodd" clip-rule="evenodd" d="M8 2a6 6 0 106 6 1 1 0 112 0 8 8 0 11-8-8 1 1 0 110 2zM5 8a3 3 0 014.293-2.708l1.996-1.995a1 1 0 111.414 1.414l-1.995 1.996A3 3 0 115 8z"/>
</symbol>
<symbol id="icon-wrench-repair-filled" viewBox="0 0 16 16">
  <path fill-rule="evenodd" clip-rule="evenodd" d="M6.002 7.416a2 2 0 01-2.829 0L1.315 5.557C.82 5.063 0 5.302 0 6a6 6 0 008.587 5.415l3.995 3.995a2 2 0 002.828-2.828l-3.995-3.995A6 6 0 006 0c-.698 0-.937.82-.443 1.315l1.86 1.858a2 2 0 010 2.829L6.001 7.416z"/>
</symbol>
<symbol id="icon-layers-sheet-filled" viewBox="0 0 16 16">
  <path fill-rule="evenodd" clip-rule="evenodd" d="M1.895 2.553a1.618 1.618 0 000 2.894L6.578 7.79A2 2 0 007.472 8h1.056a2 2 0 00.895-.211l4.683-2.342a1.618 1.618 0 000-2.894L9.423.21A2 2 0 008.528 0H7.472a2 2 0 00-.894.211L1.895 2.553zm-.79 5.5a1 1 0 011.342-.447l4.578 2.288a1 1 0 00.447.106h1.056a1 1 0 00.447-.106l4.578-2.288a1 1 0 01.894 1.788l-4.577 2.29A3 3 0 018.528 12H7.472a3 3 0 01-1.341-.317L1.553 9.394a1 1 0 01-.447-1.341zm13.79 4a1 1 0 01-.448 1.341l-4.577 2.29A3 3 0 018.528 16H7.472a3 3 0 01-1.342-.317l-4.577-2.289a1 1 0 11.894-1.788l4.578 2.288a1 1 0 00.447.106h1.056a1 1 0 00.447-.106l4.578-2.288a1 1 0 011.341.447z"/>
</symbol>
<symbol id="icon-database-store-filled" viewBox="0 0 16 16">
  <path fill-rule="evenodd" clip-rule="evenodd" d="M8 1C3 1 1 2.5 1 4s2 3 7 3 7-1.5 7-3-2-3-7-3zM2.443 8.104c.047.02.175.075.283.116.216.08.555.194 1.017.31C4.666 8.76 6.084 9 8 9c1.916 0 3.335-.24 4.258-.47.462-.116.8-.23 1.016-.31.108-.04.238-.097.284-.117a1 1 0 01.89 1.791l-.021.01c-.095.041-.32.14-.45.189-.285.106-.696.243-1.234.377-1.077.27-2.659.53-4.743.53-2.084 0-3.665-.26-4.742-.53-.538-.134-.95-.27-1.234-.377-.131-.05-.355-.148-.45-.19l-.021-.009a1 1 0 01.89-1.79zm.283 4.116a6.268 6.268 0 01-.283-.116 1 1 0 00-.89 1.79l.02.01c.096.041.32.14.451.189.284.106.696.243 1.234.377C4.335 14.74 5.916 15 8 15c2.085 0 3.666-.26 4.743-.53.538-.134.95-.27 1.233-.377.132-.05.355-.148.45-.19l.021-.008a1 1 0 00-.889-1.792c-.046.02-.176.077-.284.117-.216.081-.554.195-1.016.31-.923.23-2.342.47-4.258.47s-3.334-.24-4.257-.47c-.462-.115-.8-.229-1.017-.31z"/>
</symbol>
<symbol id="icon-trending_up-graph-chart-arrow-outline" viewBox="0 0 16 16">
  <path fill-rule="evenodd" clip-rule="evenodd" d="M8.414 10A.414.414 0 018 9.586V8.414a2.414 2.414 0 00-4.121-1.707L.293 10.293a1 1 0 101.414 1.414l3.586-3.586A.414.414 0 016 8.414v1.172a2.414 2.414 0 004.121 1.707L14 7.414V9a1 1 0 102 0V5a1 1 0 00-1-1h-4a1 1 0 100 2h1.586L8.707 9.879a.414.414 0 01-.293.121z"/>
</symbol>
<symbol id="icon-trending_down-graph-chart-arrow-outline" viewBox="0 0 16 16">
  <path fill-rule="evenodd" clip-rule="evenodd" d="M8.414 6A.414.414 0 008 6.414v1.172a2.414 2.414 0 01-4.121 1.707L.293 5.707a1 1 0 011.414-1.414l3.586 3.586A.414.414 0 006 7.586V6.414a2.414 2.414 0 014.121-1.707L14 8.586V7a1 1 0 112 0v4a1 1 0 01-1 1h-4a1 1 0 110-2h1.586L8.707 6.121A.414.414 0 008.414 6z"/>
</symbol>
<symbol id="icon-activity-pulse-outline" viewBox="0 0 16 16">
  <path fill-rule="evenodd" clip-rule="evenodd" d="M6.393 2a.607.607 0 00-.6.52l-.558 3.904A3 3 0 012.265 9H1a1 1 0 010-2h1.265a1 1 0 00.99-.859l.558-3.903A2.607 2.607 0 019 2.607v10.8a.593.593 0 001.182.073l.607-4.852A3 3 0 0113.766 6H15a1 1 0 110 2h-1.234a1 1 0 00-.993.876l-.606 4.852A2.593 2.593 0 017 13.407v-10.8A.607.607 0 006.393 2z"/>
</symbol>
<symbol id="icon-energy-lightning-filled" viewBox="0 0 16 16">
  <path d="M9 7h2.564a1.436 1.436 0 011.052 2.413L6.81 15.666a1.044 1.044 0 01-1.81-.71v-.231c0-.149.026-.296.077-.436L7 9H4.436a1.436 1.436 0 01-1.052-2.413L9.19.334a1.044 1.044 0 011.81.71v.231c0 .149-.026.296-.077.436L9 7z"/>
</symbol>
<symbol id="icon-home-house-filled" viewBox="0 0 16 16">
  <path fill-rule="evenodd" clip-rule="evenodd" d="M2 9h-.586a1.414 1.414 0 01-1-2.414l6-6A2 2 0 017.828 0h.344a2 2 0 011.414.586l6 6a1.414 1.414 0 01-1 2.414H14v5a2 2 0 11-4 0v-1a2 2 0 10-4 0v1a2 2 0 11-4 0V9z"/>
</symbol>
<symbol id="icon-chart_tree_horizont-graph-filled" viewBox="0 0 16 16">
  <path fill-rule="evenodd" clip-rule="evenodd" d="M13 0a1 1 0 00-1 1h-1a3 3 0 00-3 3v3H6V6a1 1 0 00-1-1H1a1 1 0 00-1 1v4a1 1 0 001 1h4a1 1 0 001-1V9h2v3a3 3 0 003 3h1a1 1 0 001 1h2a1 1 0 001-1v-2a1 1 0 00-1-1h-2a1 1 0 00-1 1h-1a1 1 0 01-1-1V9h2a1 1 0 001 1h2a1 1 0 001-1V7a1 1 0 00-1-1h-2a1 1 0 00-1 1h-2V4a1 1 0 011-1h1a1 1 0 001 1h2a1 1 0 001-1V1a1 1 0 00-1-1h-2z"/>
</symbol>
<symbol id="icon-chart_tree_vertical_round-graph-filled" viewBox="0 0 16 16">
  <path fill-rule="evenodd" clip-rule="evenodd" d="M5 3a3 3 0 114 2.83V8h3a3 3 0 013 3v1.268A2 2 0 0114 16a2 2 0 01-1-3.732V11a1 1 0 00-1-1H9v2.268A2 2 0 018 16a2 2 0 01-1-3.732V10H4a1 1 0 00-1 1v1.268A2 2 0 012 16a2 2 0 01-1-3.732V11a3 3 0 013-3h3V5.83A3.001 3.001 0 015 3z"/>
</symbol>
<symbol id="icon-chart_tree_vertical_square-graph-filled" viewBox="0 0 16 16">
  <path fill-rule="evenodd" clip-rule="evenodd" d="M9 0h1a1 1 0 011 1v4a1 1 0 01-1 1H9v2h3a3 3 0 013 3v1a1 1 0 011 1v2a1 1 0 01-1 1h-2a1 1 0 01-1-1v-2a1 1 0 011-1v-1a1 1 0 00-1-1H9v2a1 1 0 011 1v2a1 1 0 01-1 1H7a1 1 0 01-1-1v-2a1 1 0 011-1v-2H4a1 1 0 00-1 1v1a1 1 0 011 1v2a1 1 0 01-1 1H1a1 1 0 01-1-1v-2a1 1 0 011-1v-1a3 3 0 013-3h3V6H6a1 1 0 01-1-1V1a1 1 0 011-1h3z"/>
</symbol>
<symbol id="icon-chart_bar-graph-rand-outline" viewBox="0 0 16 16">
  <path d="M8 0a1 1 0 00-1 1v14a1 1 0 102 0V1a1 1 0 00-1-1zm4 16a.983.983 0 001-.964V7.964A.983.983 0 0012 7a.983.983 0 00-1 .964v7.072A.983.983 0 0012 16zm-8 0a.975.975 0 001-.947V4.947A.975.975 0 004 4a.975.975 0 00-1 .947v10.106A.975.975 0 004 16z"/>
</symbol>
<symbol id="icon-chart_bar-graph-desc-outline" viewBox="0 0 16 16">
  <path d="M4 0a1 1 0 00-1 1v14a1 1 0 102 0V1a1 1 0 00-1-1zm8 16a.983.983 0 001-.964V7.964A.983.983 0 0012 7a.983.983 0 00-1 .964v7.072A.983.983 0 0012 16zm-4 0a.975.975 0 001-.947V4.947A.975.975 0 008 4a.975.975 0 00-1 .947v10.106A.975.975 0 008 16z"/>
</symbol>
<symbol id="icon-chart_line-graph-outline" viewBox="0 0 16 16">
  <path d="M1 0a1 1 0 011 1v12a1 1 0 001 1h12a1 1 0 110 2H3a3 3 0 01-3-3V1a1 1 0 011-1z"/>
  <path d="M13.832 7.445a1 1 0 01-.277 1.387l-3 2a1 1 0 01-1.002.062l-1.356-.677-1.49 1.49A1 1 0 016 12H5a1 1 0 110-2h.586l1.707-1.707a1 1 0 011.154-.187l1.481.74 2.517-1.678a1 1 0 011.387.277zM5.949 2.684a1 1 0 10-1.898.632l1 3a1 1 0 001.656.391L9.094 4.32l1.306.98a1 1 0 001.2 0l2-1.5a1 1 0 10-1.2-1.6L11 3.25 9.6 2.2a1 1 0 00-1.307.093L6.437 4.149l-.488-1.465z"/>
</symbol>
<symbol id="icon-chart_pie-graph-circle-outline" viewBox="0 0 16 16">
  <path fill-rule="evenodd" clip-rule="evenodd" d="M10 7h5.938A8.004 8.004 0 009 .062V6a1 1 0 001 1zM3.111 3.18A7 7 0 017 2v5a2 2 0 002 2h5A7 7 0 113.111 3.18z"/>
</symbol>
<symbol id="icon-folder-file-open-filled" viewBox="0 0 16 16">
  <path d="M0 4a2 2 0 012-2h2.882c.685 0 1.312.387 1.618 1 .306.613.933 1 1.618 1H14a2 2 0 012 2v6a2 2 0 01-2 2H2a2 2 0 01-2-2V4z"/>
</symbol>
<symbol id="icon-image-file-save-filled" viewBox="0 0 16 16">
  <path fill-rule="evenodd" clip-rule="evenodd" d="M5 6a3 3 0 100-6 3 3 0 000 6zm-5 5.03a2 2 0 01.838-1.628l1.5-1.072a2 2 0 012.324 0l.629.45a2 2 0 002.845-.547l2.022-3.146a2 2 0 013.097-.332l2.16 2.16A2 2 0 0116 8.327V14a2 2 0 01-2 2H2a2 2 0 01-2-2v-2.97z"/>
</symbol>
<symbol id="icon-photo-file-save-filled" viewBox="0 0 16 16">
  <path fill-rule="evenodd" clip-rule="evenodd" d="M7 1h-.882c-.685 0-1.312.387-1.618 1-.306.613-.933 1-1.618 1H2a2 2 0 00-2 2v8a2 2 0 002 2h12a2 2 0 002-2V5a2 2 0 00-2-2h-.882A1.809 1.809 0 0111.5 2c-.306-.613-.933-1-1.618-1H7zm5 8a4 4 0 11-8 0 4 4 0 018 0zm-4 2a2 2 0 100-4 2 2 0 000 4z"/>
</symbol>
<symbol id="icon-chat-simple-filled" viewBox="0 0 16 16">
  <path d="M4 1a2 2 0 00-2 2v9l-1.317.658A1.236 1.236 0 001.236 15H14a2 2 0 002-2V3a2 2 0 00-2-2H4z"/>
</symbol>
<symbol id="icon-chat-tworows-filled" viewBox="0 0 16 16">
  <path fill-rule="evenodd" clip-rule="evenodd" d="M4 1a2 2 0 00-2 2v9l-1.317.658A1.236 1.236 0 001.236 15H14a2 2 0 002-2V3a2 2 0 00-2-2H4zm1 5a1 1 0 011-1h6a1 1 0 110 2H6a1 1 0 01-1-1zm1 3a1 1 0 100 2h4a1 1 0 100-2H6z"/>
</symbol>
<symbol id="icon-chat-dots-filled" viewBox="0 0 16 16">
  <path fill-rule="evenodd" clip-rule="evenodd" d="M2 3a2 2 0 012-2h10a2 2 0 012 2v10a2 2 0 01-2 2H1.236a1.236 1.236 0 01-.553-2.342L2 12V3zm3 4a1 1 0 100 2 1 1 0 000-2zm3 1a1 1 0 112 0 1 1 0 01-2 0zm5-1a1 1 0 100 2 1 1 0 000-2z"/>
</symbol>
<symbol id="icon-chat-mark-filled" viewBox="0 0 16 16">
  <path d="M2 3a2 2 0 012-2h10a2 2 0 012 2v4.803A6 6 0 007.341 15H1.236a1.236 1.236 0 01-.553-2.342L2 12V3z"/>
  <path d="M15.707 10.293a1 1 0 010 1.414l-3 3a1 1 0 01-1.414 0l-1-1a1 1 0 111.414-1.414l.293.293 2.293-2.293a1 1 0 011.414 0z"/>
</symbol>
<symbol id="icon-chat-add-filled" viewBox="0 0 16 16">
  <path d="M4 1a2 2 0 00-2 2v9l-1.317.658A1.236 1.236 0 001.236 15h6.105A6 6 0 0116 7.803V3a2 2 0 00-2-2H4z"/>
  <path d="M12 11a1 1 0 112 0v1h1a1 1 0 110 2h-1v1a1 1 0 11-2 0v-1h-1a1 1 0 110-2h1v-1z"/>
</symbol>
<symbol id="icon-chat-threerows-filled" viewBox="0 0 16 16">
  <path fill-rule="evenodd" clip-rule="evenodd" d="M2 3a2 2 0 012-2h10a2 2 0 012 2v10a2 2 0 01-2 2H1.236a1.236 1.236 0 01-.553-2.342L2 12V3zm4 0a1 1 0 000 2h6a1 1 0 100-2H6zM5 8a1 1 0 011-1h4a1 1 0 110 2H6a1 1 0 01-1-1zm1 3a1 1 0 100 2h2a1 1 0 100-2H6z"/>
</symbol>
<symbol id="icon-calculator-square-fill" viewBox="0 0 16 16">
  <path fill-rule="evenodd" clip-rule="evenodd" d="M0 3a3 3 0 013-3h10a3 3 0 013 3v10a3 3 0 01-3 3H3a3 3 0 01-3-3V3zm14 0v3H2V3a1 1 0 011-1h10a1 1 0 011 1zM7 8h3v2H7V8zm-2 2V8H2v2h3zm-3 2h3v2H3a1 1 0 01-1-1v-1zm5 0h3v2H7v-2zm5 0v2h1a1 1 0 001-1V8h-2v4z"/>
</symbol>
<symbol id="icon-check-circle-filled" viewBox="0 0 16 16">
  <path fill-rule="evenodd" clip-rule="evenodd" d="M3.555 1.348a8 8 0 118.89 13.304 8 8 0 01-8.89-13.304zM7 8.586l3.291-3.292a1 1 0 111.415 1.415l-3.997 3.997-.002.001a1 1 0 01-1.414 0L4.297 8.711A1 1 0 115.71 7.297L7 8.586z"/>
</symbol>
<symbol id="icon-noise_circle-outline" viewBox="0 0 16 16">
  <path d="M11.5 11a1.5 1.5 0 100-3 1.5 1.5 0 000 3z"/>
  <path fill-rule="evenodd" clip-rule="evenodd" d="M3.555 1.348a8 8 0 118.89 13.304 8 8 0 01-8.89-13.304zM8 2a6 6 0 01.485.02 2.5 2.5 0 104.336 2.41 6 6 0 01-6.474 9.338A4.002 4.002 0 005 6a3.99 3.99 0 00-2.96 1.309A6.007 6.007 0 018 2z"/>
</symbol>
<symbol id="icon-brain-up-filled" viewBox="0 0 16 16">
  <path fill-rule="evenodd" clip-rule="evenodd" d="M11 0a2 2 0 00-2 2v12a2 2 0 104 0 3 3 0 001.659-5.5A3 3 0 0013 3V2a2 2 0 00-2-2zM3 3V2a2 2 0 114 0v12a2 2 0 11-4 0 3 3 0 01-1.659-5.5A3 3 0 013 3z"/>
</symbol>
<symbol id="icon-brain-left-filled" viewBox="0 0 16 16">
  <path fill-rule="evenodd" clip-rule="evenodd" d="M11.5 1c-.69 0-1.334.2-1.876.545a3 3 0 00-5.62 1.296l-.85-.228a2.5 2.5 0 00-1.294 4.83l5.161 1.383A2.502 2.502 0 009 10.95v3.55a1.5 1.5 0 003 0V11h1.5a2.5 2.5 0 001.044-4.772A3.5 3.5 0 0011.5 1z"/>
</symbol>
<symbol id="icon-stop-big-rectangle-square-filled" viewBox="0 0 16 16">
  <path d="M2 4a2 2 0 012-2h8a2 2 0 012 2v8a2 2 0 01-2 2H4a2 2 0 01-2-2V4z"/>
</symbol>
<symbol id="icon-pause- big-parallel-line-filled" viewBox="0 0 16 16">
  <path fill-rule="evenodd" clip-rule="evenodd" d="M4 2a2 2 0 00-2 2v8a2 2 0 002 2h1a2 2 0 002-2V4a2 2 0 00-2-2H4zm7 0a2 2 0 00-2 2v8a2 2 0 002 2h1a2 2 0 002-2V4a2 2 0 00-2-2h-1z"/>
</symbol>
<symbol id="icon-play-big-triangle-right-filled" viewBox="0 0 16 16">
  <path d="M2 3.618v8.764a1.618 1.618 0 002.342 1.447l8.764-4.382a1.618 1.618 0 000-2.894L4.342 2.17A1.618 1.618 0 002 3.618z"/>
</symbol>
<symbol id="icon-checklist_on-line-row-filled" viewBox="0 0 16 16">
  <path fill-rule="evenodd" clip-rule="evenodd" d="M1.44 5.564l-.005-.004-.994-.993a1.5 1.5 0 012.057-2.183L4.443.44a1.5 1.5 0 112.121 2.122L3.562 5.563l-.001.001a1.5 1.5 0 01-2.121 0zM10.5 2a1.5 1.5 0 100 3h4a1.5 1.5 0 000-3h-4zM0 11a2 2 0 012-2h3a2 2 0 012 2v3a2 2 0 01-2 2H2a2 2 0 01-2-2v-3zm9 1.5a1.5 1.5 0 011.5-1.5h4a1.5 1.5 0 010 3h-4A1.5 1.5 0 019 12.5z"/>
</symbol>
    </defs>
    </svg>